<svg viewBoxSize="575" data-root-id="3094087482166" xmlns="http://www.w3.org/2000/svg" viewBox="16.995147705078125 105.319091796875 964.8907470703125 720.03662109375" height="56.84624020467262" width="76.17724609375" y="232.96250915527344" x="249.41098474121094" preserveAspectRatio="xMinYMin" zoom="1" editorType="buyer" data-layer-role="icon" style="position: absolute; height: 56.8462px; width: 76.1772px; top: 232.963px; left: 249.411px;"><path id="Layer_7" dataName="Layer 7" class="cls-1" d="M47.85,496.83c-.94,7.15-5,38.28-6,45.59-4.19,31.76-4.25,32.13-4.51,34.81C34,611.5,37.46,616,33.24,640.61c-2.53,14.68-4,14.33-6.57,30.95a322.44,322.44,0,0,0-3.52,40c-1.08,30.26,2.2,29.19-.42,43.91-1.91,10.72-.5,22.23-4.49,32.36-.35.89-1.56,3.82-.41,6.62,1.5,3.68,6.21,5,8.65,5.66,17.91,4.65,28.89,3.76,28.89,3.76,18.51-1.5,27.76-2.26,36.63-3.48,15.27-2.12,17.45-.47,55.05.17,42.45.73,38.37-1.4,73.89-.34,22.85.69,30.49,1.75,55,2.27,7.53.16,11.56.17,18.12.87,12.94,1.4,17.13,3.54,28.88,3.76,1.23,0,5.47-.17,13.95-.56,14.44-.67,18.8-1,23.36-1.17,7.16-.29,15.57.14,32.4,1,13.92.71,27.88.75,41.8,1.44a48.11,48.11,0,0,0,8.13-.3c1.84-.23,3.44-.61,3.73-.63,3.32-.24-4.83,4.93-3.21,7.63.55,1.28,2.89,1.34,7.65,1.47,17.71.51,14.76.61,17.42.52,10-.34,15.05-.5,17.43-.53,16-.21,24-.31,28.92.62s10.74,2.54,14.64-.56a21.38,21.38,0,0,1,4.56-3.44,16.5,16.5,0,0,1,6.64-1.68c7.5-.43,11.25-.64,17.41.87,2.92.71,16.35,1.19,43.2,2.15s26.8-1.14,53-.54c23.46.54,21.17,2.18,47.71,3.25,23.28.93,25.41-.31,62.72.25,9.67.14,22.41.34,39,1.07,21.09.92,24.42,1.64,51.9,3.28,29.92,1.79,44.89,2.69,57.82,2.3,34.11-1,32.86-5.56,45.68-2.7,3.21.71,11.52,2.83,15.34-1.25,2-2.09,2-5,1.84-10.09-.34-10.4-.51-15.61-1.54-21.27-.88-4.86-.07-2-2.16-28.95-3.65-47.07-5.46-47.25-5.3-65.56.15-16.91,1.7-17.89.64-30-1.4-15.81-4.4-18.08-7-37-.88-6.56,0-2.74-2.45-35.22-1.23-16.66-1.8-22.36-2.52-28.25-1.25-10.29-1.74-11.27-2.6-19.54-1.22-11.82-.67-14.35-1.48-27.2-.42-6.74-1.17-18.63-3.51-33.48-1.9-12-3.55-17.81-2.88-27.56a90,90,0,0,0,.45-9.75c-.16-8-1.53-11.79-2.27-17.8-1-8.19.35-10.55.53-19.51.18-8.73-1-13-3.57-27.91-1.18-6.9-4-23.08-5.88-40.13-2-18.08-3.13-37.67-3.13-37.67a32.86,32.86,0,0,1-3-12.57c-.16-5.42,1.2-9-.94-10.81-1.83-1.52-5-.72-6.27-.41-4.23,1.06-4.94,3.72-7.35,3.41-2.63-.34-4.49-3.88-5.17-6-1.37-4.23.55-7.15-1.31-8.72-1.33-1.14-2.79,0-4.17-1.09-1.77-1.38-.84-4.37-.61-9.07.41-8.5-2.17-8.66-1.24-15.69.56-4.26,1.79-6.3.42-8-1.51-1.9-4.18-.84-6.24-2.85-1.57-1.52-1.64-3.68-1.68-7-.14-11.63.37-16.36-.14-22-.25-2.76-.53-3.41-.63-6.28-.12-3.23.18-4.26-.65-5.58-1.28-2-3.13-1.35-4.15-3.18-1.32-2.36,1-4.88-.28-6.62-1-1.31-3,.07-4.18-1.09-1.86-1.86,1.48-6.89.08-8-.88-.7-2.68.9-5.59,2-4.14,1.61-5.65.39-11.51.93-8.31.77-11.23,3.77-13.26,2-1.39-1.23-.92-3.38-.63-7.33.5-6.85-.62-4.46-.54-16.38.08-12.88,1.39-17.55-1.56-19.53-1.63-1.09-4.17-1.09-5.21-1.1-3.93,0-5.43,1.81-7,1s-1.25-3.37-1.67-8.38c-.51-6.21-1-11.94-3.7-13.27-2.56-1.26-6.38,1.72-7.69,2.71-9.6,7.19-22.48,8.38-33.58,12.92-22.6,9.24-43.72,13.05-75.5,23.67-21.63,7.23-30.34,12.67-57.37,22.8-7.87,3-13.14,4.8-21.69,8.51-12.65,5.49-13.49,6.81-20.64,8.86-9.36,2.69-12.1,1.63-19.91,5-5.6,2.44-6.9,4.17-13,7.89-10.7,6.57-13.39,5.33-25.55,11.26-13.81,6.72-11.27,8.77-26.64,16.47-10.25,5.13-13,5-20.66,10.26s-11.7,8-14.39,10.66c-2.9,2.91-4.92,5.56-8.77,6.54-4.19,1.06-7.89-.53-9.4-1.14-9.2-3.67-11.07-.11-39-3.85-12.79-1.72-19.19-2.58-26.45-4.44-6.49-1.66-10.75-3.22-17.74-3.31s-8.62,1.45-16.05,2.29c-11.29,1.28-14.35-1.54-28.9-2.37-8.28-.47-9.37.33-23,.83-13.39.49-19.81,0-35.19-.34-22.7-.5-40.23-.13-54.71.18s-11.34.47-47.41,1.64c-28,.9-35.7,1-42.53,1-24.57,0-36.86,0-39.71-1.07a9.56,9.56,0,0,0-6.62-.42,8.48,8.48,0,0,0-5.28,5.88c-.47,2.4.84,3.37,0,5.22-.6,1.23-1.46,1.4-3.87,3.1-3.36,2.39-3,3-4.56,3.79-2.5,1.27-4.07.06-10.8-.8-5.15-.65-7.76-1-9.41.26-3,2.19-2.35,7.62-2.18,9.39,1.13,11.8-4.33-5.88-4.72,56.76-.22,35,1.55,29.35.32,39.38-2.46,19.94-7.29,24.52-9.51,46.95-1,10.08-.32,12.18-.64,30.31C50.19,460.69,49.56,477.25,47.85,496.83Z" name="Layer 1" zoom="1" data-layer-id="6436676282184" style="fill: rgb(242, 235, 219); fill-opacity: 1;"></path><path id="Layer_7" dataName="Layer 7" class="cls-2" d="M981.78,804.88c-.44-10.5-.67-15.77-1.78-21.6a32.16,32.16,0,0,1-.63-5.63c-.2-3.22-.57-9.21-1.78-23-1.86-21.34-3.27-33.28-4.21-41.19-1.16-9.77-1.69-14.24-1.7-24.11,0-7.17.27-11.48.5-14.94A78.82,78.82,0,0,0,972,659.1a101.66,101.66,0,0,0-3.43-18.25,148.93,148.93,0,0,1-3.91-18.8,62.34,62.34,0,0,1-.66-6.82c-.22-3.75-.64-10.72-2.11-28.22-1.37-16.42-2-22.22-2.8-28.34-.63-4.85-1.08-7.63-1.48-10.09-.43-2.71-.81-5-1.3-9.38-.77-6.84-.91-10.43-1.08-15-.13-3.17-.26-6.75-.65-12.11-.48-6.55-1.36-18.74-3.86-33.68-.44-2.61-.86-4.94-1.25-7.07-1.36-7.43-2.26-12.39-1.88-19.53l.12-1.6c0-.13,0-.25,0-.38v-.17a71.44,71.44,0,0,0,.23-8.2A70.66,70.66,0,0,0,946.46,429c-.34-1.81-.67-3.51-.94-5.49-.13-1-.22-1.93-.29-2.78,0-1,.11-2.06.24-3.12a84.6,84.6,0,0,0,.39-16.64c-.18-5.46-1-9.71-2.45-17.51-.41-2.17-.87-4.62-1.39-7.46s-1.36-7.46-2.29-13c-2.84-18.6-4.7-37.39-5.84-56.16l-.13-2-.06-1,0-.52V303a3.64,3.64,0,0,1-1,.19V303l1-.21c.06,0,.09.06.07.09,1.88-.19.58-.32-1.13-.35,0-.18,0-.35,0-.51l.9-.19c-.42-.94-.79-1.89-1.12-2.85,0-.3,0-.48,0-.5l0-.46-.19-.41c-.19-.4-.36-.8-.52-1.21a28.68,28.68,0,0,1-.89-8.63c0-2.79,1.06-6.07-.75-9a5.67,5.67,0,0,0-.58-.7,6.1,6.1,0,0,0-2.14-4.7c-2.82-2.3-6.93-1.23-8.48-.83a13.49,13.49,0,0,0-5.24,2.71c-.78.6-1,.73-1.15.71a3.31,3.31,0,0,1-1.79-1.53c-.27-2.07.31-4.21-.33-6.49a4.87,4.87,0,0,0-1.42-2,5.11,5.11,0,0,0-1.78-4,4.73,4.73,0,0,0-2.37-1.05,44.47,44.47,0,0,0,.29-5.79c.16-3.36-1.4-7.05-1.46-10.2a23.11,23.11,0,0,1,.51-4.64c.62-2.84,1.56-6-.83-8.34a5.15,5.15,0,0,0-.56-.47,5,5,0,0,0-1.17-3,6.81,6.81,0,0,0-4.39-2.23c-.3,0-.55-.11-.78-.16,0-.72,0-1.49,0-2.26v-5.14l.12-10.36c.15-4.27-.6-8.81-.86-13l0-2.56a6.89,6.89,0,0,0-.88-3.7,6,6,0,0,0-1.89-2,6,6,0,0,0-.82-1.94,6.18,6.18,0,0,0-1.28-1.45,6.12,6.12,0,0,0,0-3.47,4.15,4.15,0,0,0-2-2.41c-.17-.08-.32-.12-.47-.18a4.52,4.52,0,0,0-.9-2.41,3.88,3.88,0,0,0-.84-.79c.08-.33.15-.65.19-.94a5,5,0,0,0-.06-2.44,3.38,3.38,0,0,0-1.46-1.9,2.7,2.7,0,0,0-1.15-.42,3.49,3.49,0,0,0-1.31-3c-1.84-1.45-3.9-.35-5.56.53a26.46,26.46,0,0,1-2.49,1.21,10.66,10.66,0,0,1-5.14.71,39.15,39.15,0,0,0-14.12,2,30.86,30.86,0,0,0,0-7.18,100.57,100.57,0,0,1-.39-15.14l.19-5.15c.11-4,.8-9.45-3.28-11.94-.18-.1-.37-.17-.55-.26a5.94,5.94,0,0,0-2.33-2.86c-2.28-1.49-5.32-1.46-6.62-1.45a14.44,14.44,0,0,0-2.76.29A66,66,0,0,0,838,114a7.57,7.57,0,0,0-4.26-5.27,6.32,6.32,0,0,0-2.82-2.87c-3.86-1.85-8.25,1.52-10.12,3l-.14.11c-5.76,4.4-12.84,6.49-20.34,8.7a122.68,122.68,0,0,0-12.56,4.22c-12.68,5.32-24.87,8.9-39,13-10.51,3.09-22.43,6.58-36.14,11.31-11.79,4.06-19.7,7.54-28.87,11.57-7.54,3.31-16.09,7.07-28.36,11.8-1.35.53-2.63,1-3.86,1.48-6,2.31-10.76,4.12-17.86,7.28-5.06,2.25-8.31,3.86-10.68,5a50.62,50.62,0,0,1-9.58,3.92,72.53,72.53,0,0,1-8.89,2,43,43,0,0,0-19.44,8.1c-1.36.95-2.89,2-5,3.38A57,57,0,0,1,566.93,207a100.79,100.79,0,0,0-12.14,5.12,64.63,64.63,0,0,0-13,8.17,72.4,72.4,0,0,1-13.55,8.57c-3.9,2-6.66,3.2-9.09,4.25a57.84,57.84,0,0,0-11.76,6.38c-7.87,5.47-11.81,8.21-14.64,11.1q-.69.71-1.32,1.38c-2.14,2.26-3.69,3.9-6.25,4.58a9.59,9.59,0,0,1-1.64.25c-3.53-.48-6.91-2.6-10.55-2.91a102.59,102.59,0,0,0-10.61-.37A189,189,0,0,1,442,252c-10.21-1.36-20.4-2.39-30.32-5.07-6.71-1.93-14-3.5-21.17-2.62-5.19.77-9.94,2.34-15.17,2.42-5.12.28-9.85-.81-15-1.57a105.26,105.26,0,0,0-10.48-1,74.41,74.41,0,0,0-10.57.21q-10.27.82-20.57,1c-6.84.09-13.72-.15-20.63-.31-34.35-1-69.2.5-103.57,1.92-17.22.48-34.47,1.11-51.7,1.33-9.89-.06-21.23.29-31-.32A15.53,15.53,0,0,1,107,247a9.38,9.38,0,0,0-10.39,3.1,10.67,10.67,0,0,0-5.21,7.05,8.54,8.54,0,0,0,.14,3.63c0,.2.08.35.1.46a18.23,18.23,0,0,0-3.51,3l-.12.11c-.31.24-.6.46-.85.67a4.27,4.27,0,0,1-.84.37c-1.3.45-3,0-4.7-.32s-3.43-.61-5.16-.82c-3.06-.22-6.49-1.27-9.41.24a6.48,6.48,0,0,0-1.94,2.23,6.19,6.19,0,0,0-1.33.74c-4,3-3.34,9.2-3.09,11.53l0,.14c.33,3.16.15,3.57-.33,4.66-1.4,3.16-4,9.05-3.87,51.88.06,18.74.58,25.8.88,30a36.37,36.37,0,0,1-.17,9.07A126.49,126.49,0,0,1,53,395.67a135.1,135.1,0,0,0-4.85,26.15,121.77,121.77,0,0,0-.43,15.35c.06,3.65.12,8.19.07,15.17-.13,16-.83,32.34-2.08,48.56-.89,7.26-4.67,38.29-5.57,45.59L39,556.17c-2.74,22.4-2.8,22.83-3,25.25a334.5,334.5,0,0,0-1.39,33.83,165.18,165.18,0,0,1-1,21.7q-.6,3.84-1.32,7.67c-1.28,7-3.59,13.69-4.78,20.71A299.93,299.93,0,0,0,23,707.61c-.29,7.08-.49,14.17-.33,21.26S24,743,23.19,750.06c-.34,3.49-1.18,7-1.48,10.52-.72,7-.59,14.16-2,21.1-.51,3.55-2.61,6.7-2.71,10.32A6.33,6.33,0,0,0,18,795.67a9.44,9.44,0,0,0,.67,4.38c2.08,5,8.14,6.46,10.42,7,18.15,4.53,29.28,3.59,29.8,3.55,18.49-1.68,27.77-2.53,36.68-3.85,9.49-1.41,13.8-1.27,25.32-.91,6.61.21,15.66.49,29.35.59,21.07.16,30.81-.28,39.4-.66,8.89-.4,16.58-.75,34.44-.38,10.32.2,17.58.52,24.61.83,8.74.39,17,.75,30.47.91l2.57,0c6,.06,9.67.1,15.34.65,5.29.52,9.17,1.2,12.6,1.79a90.65,90.65,0,0,0,16.54,1.71c1.37,0,5.32-.21,14.1-.7,8.3-.46,13.25-.78,16.86-1,2.65-.17,4.54-.29,6.47-.38,7.05-.35,15.45,0,32.18.69,7.11.3,14.33.42,21.31.54,6.73.12,13.69.23,20.51.51a49.63,49.63,0,0,0,5.15-.07c-.91,1.28-1.49,2.71-.71,4.27a3.47,3.47,0,0,0,2.44,1.61h0c1.41,2.05,4.4,2.11,9.52,2.2,9.23.18,12.82.3,14.55.36a27.46,27.46,0,0,0,3,0c10-.43,15-.64,17.37-.69,15.83-.35,23.78-.53,28.43.31l1.46.27c4.82.92,10.8,2.06,15.19-1.49.34-.28.68-.59,1-.94a12.69,12.69,0,0,1,3.05-2.27,13.85,13.85,0,0,1,5.64-1.46c5.94-.4,9.31-.63,13.36,0,.21,0,.42.08.62.14.44.08.87.14,1.3.2l1.41.3c3.17.75,15.88,1.08,43.71,1.81a275.87,275.87,0,0,0,27.86-.45l.37,0c7.45-.28,14.88-.41,22.37-.14,16.5.27,32.8,3.09,49.33,3.36,9.76.36,23.07.32,33,.08,19.38-.34,46.1.77,65.85,1.23,32.83,1.61,66,4.87,98.81,5.72a235.81,235.81,0,0,0,41.38-2.67c5.45-1,10.3-1.38,15.69.06,6.42,1.7,15,2.17,17.82-4a8.76,8.76,0,0,0,2.59-1.93C982.16,813.78,982,809.67,981.78,804.88Zm-671.23-.18c-3.51-.6-7.49-1.3-13-1.83l-.67-.07a138.7,138.7,0,0,0-16-1.07c-25.11-.25-50.12-2.46-75.24-2.5-7.69,0-17.16.23-25.1.59-20.8.69-41.82,0-62.67-.63-8.36-.37-16.82-.65-25.13.63-12.42,1.72-24.93,2.57-37.42,3.64-8.6.33-17.69-1.06-26.18-3.07a37.79,37.79,0,0,1-5.4-1.5,4.65,4.65,0,0,1-.45-.78c-.75-1.8.05-3.9.38-4.75,2.56-6.68,2.91-13.81,3.24-20.7A106.57,106.57,0,0,1,28,760.47a58.43,58.43,0,0,0,.62-17.35A231.13,231.13,0,0,1,28,716.21a320.69,320.69,0,0,1,3.11-39.77,140.43,140.43,0,0,1,3.31-16.81c.9-3.56,1.83-7.24,3-14.17a159.83,159.83,0,0,0,2.13-30.22c0-2.62,0-5.35,0-8.37.23-2,.48-4.26.76-6.75.54-4.78,1.16-10.25,2.24-19.83l.59-5.19c.83-7.25,1-9.26,1.41-12.66.6-5.75.9-9.06,1.16-12,.18-2,.35-3.84.59-6.24.76-7.64,1.34-11.39,2.08-16.14.63-4.13,1.35-8.8,2.41-17.28,2.46-19.83,2.4-25.69,2.37-27.89,0-4.61-.36-9.41-.78-13.44.18-5.72.32-11.43.37-17.09,0-6,0-10.23-.05-13.62q.24-2.76.58-5.82c.71-6.26,1.62-11.7,3-19.93.35-2.07.66-3.88.94-5.51.94-5.44,1.56-9,2.06-14.49.09-1,.17-1.87.24-2.72a119.19,119.19,0,0,0,2.63-15,41.06,41.06,0,0,0,.19-10c-.11-1.53-.25-3.44-.38-6.16q.12-4.78.44-11.81c.16-3.3.25-4.6.64-10.08.22-3.05.52-7.4,1-14.11,1.2-17.38,1.8-26.11,1.88-28.84.1-3.47.12-6.35.14-8.66,0-4.88.06-7.57.7-9.41a11.08,11.08,0,0,0,.41-5c1.19-.38,3.89-.06,7.21.33,2.2.26,3.83.56,5.14.81,2.83.52,4.7.87,7.1-.37a7.11,7.11,0,0,0,2.17-1.72A15.76,15.76,0,0,1,91.47,268c.7-.51,1.26-.87,1.71-1.17a13.37,13.37,0,0,0,1.45-1c-.49,1.18-.23,2.66-1,3.64-.86,1.15-2.18.66-3.48.9a4.85,4.85,0,0,0-3.49,2.42,6.05,6.05,0,0,1-1.07,1.52,5.69,5.69,0,0,1-3.29,1.5,4.73,4.73,0,0,0-2.11.75c-1.31.78-1.75,2.52-2,3.89A24.6,24.6,0,0,1,76.67,286c-2.27,6.33-4.63,13-4,19.87a41.45,41.45,0,0,1,.36,7.86q-.54,16-.73,32.06l0,4a67.65,67.65,0,0,1-1.11,11.69c-.67,4.6-2.46,12.77-3.18,15.5-1.16,4.4-2.65,9.16-3.12,13.84s-.3,9.43-.5,14.11l-.42,9.26c-.1,3.19-.9,20.49-.84,23.26.09,4.66.19,9.34.38,14h.4c.31-3.1.54-6.19.79-9.28.64-8.9,2.07-18.88,2.75-27.77l.79-9.31c.12-1.62.19-3.25.25-4.87a57,57,0,0,1,.15,9.87c-1.23,13-1.84,26.25-1.76,39.35l.4,0c1.12-12.92,2.57-26.25,4.54-39,1-6.49.54-13.31.35-19.78,0-4.22-.1-8.52-.26-12.83.08-.31.15-.61.2-.88C73.13,372,74,367,74.61,362a71.31,71.31,0,0,0,.82-12.22l-.07-4q-.21-16,0-32c.23-5.27-1.39-10.56-.3-15.8.85-5.2,3-10.27,4.21-15.4.5-1.84.1-3.93,1.66-5.12a3.77,3.77,0,0,1,1.61-.61,6.79,6.79,0,0,0,3.81-1.9,7.14,7.14,0,0,0,1.19-1.77,3.93,3.93,0,0,1,2.79-2.07c1.26-.2,3.07.05,3.9-1.29.9-1.19.54-2.68,1-3.94.69-1.87,2.77-2.6,4.66-2.74l0-.4a7,7,0,0,0-3.77,1.17l0-.07a5.94,5.94,0,0,0,.31-4.17l0-.09.06-.1a4.05,4.05,0,0,0,.4-2.9A6.46,6.46,0,0,1,99.94,254a7.14,7.14,0,0,1,4.87.35c3.15,1.17,12.27,1.14,40.63.85,6.83-.07,14.31-.22,42.59-1.4,18.49-.77,26.77-1.18,32.25-1.46,5.23-.27,8.12-.41,15.14-.63,14.23-.43,31.93-1,54.57-.69,3.94.05,7.29.11,10.32.17,8.7.17,15,.29,25-.17,5.52-.26,8.95-.54,11.71-.77A71.62,71.62,0,0,1,348.1,250a108.63,108.63,0,0,1,13.39,1.48,49.37,49.37,0,0,0,15.95.6,62.14,62.14,0,0,0,7.25-1.35,31.88,31.88,0,0,1,8.47-1.07c5.4,0,9.1,1,13.79,2.19l3.39.87c7.42,1.83,13.89,2.63,26.77,4.23a190.69,190.69,0,0,0,26.78,1.72c5.12,0,7.46,0,11.65,1.62l.18.07c.45.17,1.06.41,1.8.65a36.48,36.48,0,0,1,5,3,29.09,29.09,0,0,1,3.62,3,24.25,24.25,0,0,1,4.11,5.12c2,3.75.95,7.92.5,10.1-1.42,6.89.07,14.06-.25,21.09-.32,7.32-.57,16.11-.66,23-1,23.3-.62,47.14-1.07,69.65,0,9.52,0,19.05.14,28.57s.6,19,.17,28.49a216.44,216.44,0,0,0,.11,28.7c.59,9.51,2.74,19,4.1,28.33,1.76,13.4.21,28.84-.42,42.48-.58,16.24-1,40.86-1.55,57.14-.63,37.39-.88,76.79-.9,114.26-.23,7.41.72,14.85,1.39,22.28-.37,4-1,8.16-3.48,12.36a70.88,70.88,0,0,1-4.83,6.81c-1,1.35-2.13,2.67-3.24,4-10.74-3.54-21.34-7.45-32.1-11-21.95-6.76-43.06-16.07-65.64-20.71a259.2,259.2,0,0,0-34.24-4.29c-22.94-1.08-45.8-2.24-68.58-4.42-18.59-1.59-37.45-3.81-56.09-1.4-2.61.33-5.39.7-8.21,1.09a105.8,105.8,0,0,0-10.68.71v.4l1.36.16c-2.2.3-4.35.58-6.38.84a70.17,70.17,0,0,1-11,.21,171.82,171.82,0,0,0-22.7.64c-2.44.22-4.88.47-7.31.72-8.14.18-16.28.45-24.45.89a3.93,3.93,0,0,0-1.71.43c.15-.41-1.54,1.49-.75,2.37.92,1.33.86.8,1,1a1.1,1.1,0,0,0,.28.1,5,5,0,0,0,.65.12c3.4.26,6.68.23,10.07.23,7.56-.07,15-1.21,22.53-1.77A198.9,198.9,0,0,1,188.6,735a75.84,75.84,0,0,0,17.15-1.12l1.13-.18,6.24-.2c4.18-.07,9.5-.19,14.48-.38a23,23,0,0,0,7.91-.42h.09s0-.1,0-.2l0-.19a20.42,20.42,0,0,0-4-2c10.19-.81,20.5-.16,30.73.31,28.54,2.28,57.24,4.19,85.82,5a266,266,0,0,1,34,3.86c11.2,2.11,22.18,5.48,33,9,21.48,7.43,43.23,14,64.79,21.17-.19.22-.38.46-.58.68l-.37.42.46.32A28.66,28.66,0,0,0,484.8,774a15.08,15.08,0,0,0,2.45.81,26.15,26.15,0,0,1,2.93.94c.81.31,1.44.57,1.95.79a7.93,7.93,0,0,0,2,.67c-2.26,1.82-4.33,3.86-6.83,5.28a34,34,0,0,0-7.34,5.3,20.49,20.49,0,0,1-10.66,6,8.58,8.58,0,0,1-1.06.12H468a59.74,59.74,0,0,1-7.16-.56c-2.94-.28-5.86-.48-8.72-.81a38.71,38.71,0,0,0-9-.18,128.31,128.31,0,0,1-17.42.51c-5.78-.37-11.86-.76-17.69.11a122.19,122.19,0,0,1-17.4,1.28c-5.83,0-11.71,1.12-17.47.72a41.07,41.07,0,0,1-6.42-1.12c-3.73-.63-7.56.25-11.09,1.26a20.39,20.39,0,0,1-8.45.12,121.71,121.71,0,0,0-17.55-1.82c-8.79-.69-17.54,1.24-26.29-.05l-13.66-1.39-.25,0c0-.06,0-.07,0,0h-.15l0,0h0c-.06,0-.24-.11-.29,0h-.25c-1.64-.11-4.8-.39-6.57-.53a27.21,27.21,0,0,0-4.43-.12,13.58,13.58,0,0,0-7.9,3.81l.27.29a13.21,13.21,0,0,1,7.67-3.61c3.56-.13,8.07.66,11.62.82,0,.23.05.14.09,0h.12l.54.06,4.37.49,8.72,1a69.84,69.84,0,0,0,8.81.6,141.1,141.1,0,0,1,26.24.43c4.43.31,8.69,1.73,13.13,1.76,2.94.09,6-.87,8.75-1.5a19,19,0,0,1,4.21-.29c2.89.06,5.72,1.31,8.62,1.4a51.75,51.75,0,0,0,8.89-.14c5.87-.5,11.69-.22,17.56-.61s11.58-1.48,17.42-1.33c2.83,0,5.77.43,8.74.53a132,132,0,0,0,17.68-.37,36.34,36.34,0,0,1,8.53.24c4.06.49,8.44.82,12.51,1.33a8.14,8.14,0,0,0-1,3.46,8.77,8.77,0,0,0,0,2.47,6.27,6.27,0,0,1,0,2.11,6,6,0,0,1-1.5,3.4,6.77,6.77,0,0,1-3.43,1.6,10,10,0,0,1-2.32.3,3.86,3.86,0,0,0-2.22.55,4.63,4.63,0,0,0-1.18,1,3,3,0,0,1-1.09.85,4.23,4.23,0,0,1-1.44.35c.22-.27.44-.52.6-.7,1.41-1.62,2.74-3.14,1.8-5a3,3,0,0,0-3.22-1.55l-1,.18c-.69.14-1.72.36-2.84.51a46.07,46.07,0,0,1-7.69.35c-6.88-.27-13.87-.39-20.63-.51-6.95-.12-14.13-.24-21.18-.53-16.89-.71-25.37-1.06-32.64-.7l-3,.17c-7.82.25-16.17.88-23.44,1.18-5.22.18-11.14.65-16.47.49C316.84,805.79,313.85,805.28,310.55,804.7Zm524.9-671.49c.69,8.5,2.39,29.53,2.39,29.53.93,11,2.36,22,3.17,33,.87,12.64,2.45,36.88,3.44,49.6a160.1,160.1,0,0,0,2.38,16.45c1.08,5.42,2.61,10.77,2.95,16.2,0,8.25-.11,16.6.39,24.86a55.1,55.1,0,0,0,2.68,16.45,33.36,33.36,0,0,1,2.07,7.87c.74,5.48-.76,10.91-.82,16.41a187.39,187.39,0,0,0,2.39,33.13,150.26,150.26,0,0,1,1.11,16.43,64.33,64.33,0,0,0,.25,8.39,55.87,55.87,0,0,0,2.19,8.11c1.73,5.26,3.23,10.51,4.66,15.86,5.69,21.37,5.76,43.68,8.46,65.53,1.28,11,2.62,22,4.79,32.88,1.16,5.41,2.1,10.76,2.76,16.25,1.83,15.28,3.53,42.29,5.17,57.74a78.4,78.4,0,0,0,3,16.48c1.45,5.24,3.85,10.2,3.38,15.69s-2,11.29-.63,16.76a38.35,38.35,0,0,0,3.74,11.57c2.37,4.29,1.79,4.87-2.13,5.65-7.06,1.55-13.56,4.26-20.65,5a139.12,139.12,0,0,0-21.2,3.87c-6.9,1.71-14.12,1.34-21.18,2.4a60.24,60.24,0,0,0-20.37,7.58c-4,2.06-8.63,3.06-13.25,4.07-46.32,9-94.25,17.23-139.53,30.68-9.14,2.49-18.07,6.07-27.08,8.92-4.59,1.48-9.15,1.47-13.88,2-9.57,1.51-18.69,4.38-27.88,7.24s-18.19,6-27.1,9.13c-4.5,1.48-9,2.85-13.58,4a71.72,71.72,0,0,0-13.58,5.4c-8.52,4-17.05,8.16-26.06,11l-1.36.43c-.13,0-.26-.08-.39-.14-2-.88-3-2.71-4.5-5.63a34.43,34.43,0,0,1-2.71-7.76c-.82-3.27-1.16-5.18-1.49-7-.29-1.62-.56-3.15-1.13-5.44-.43-1.75-.92-3.62-1.44-5.27a99.48,99.48,0,0,1-.35-10.66c-.06-8.81.11-33.85,0-42.84.26-38.75.68-90,1.77-128.42.32-8.4,1-20.29,1.08-28.6.21-9.6-1.67-19.23-3.4-28.58a172.71,172.71,0,0,1-2.51-28.17c0-4.72.15-9.45.28-14.22.33-9.55-.33-19.09-.47-28.62-.4-16.81-.55-39.94-.52-57.09-.13-12.3-.12-24.61.19-36.91.53-6.14,1.42-15.91,3.15-28.55,2.37-17.19,3.51-19.33,2.87-26.69-.27-3.13-.83-6.92.38-12a28.56,28.56,0,0,1,7.23-13.35c3.74-3.79,5.16-2.87,14.48-8.36a56.58,56.58,0,0,0,7.56-5.14l.93-.39A94.23,94.23,0,0,0,546,225.49a72.25,72.25,0,0,1,17.28-10.18c6.29-2.75,13.34-4.42,19.33-8,4.54-2.41,8.55-5.83,13-8.2a42.88,42.88,0,0,1,14.12-4.16,62.67,62.67,0,0,0,15.44-4.65c13.86-7,28.41-12.13,42.92-17.66,12.86-4.95,25.42-10.85,38.26-15.75,27.44-10.53,56.36-16,83.89-26.52a120,120,0,0,1,14.46-4.9c6.6-1.9,13.58-3.82,19.89-7.77,1.89-1.14,3.63-2.74,5.59-3.67.46,2.36.74,5.37.94,7.56.1,1.15.17,2.16.22,3.06.22,3.35.39,6,2.85,7.29a4.87,4.87,0,0,0,.86.33A4,4,0,0,0,835.45,133.21ZM134.64,736.76c-.06.06-.11.08-.08,0Zm85-5,1.9.36-3.9-.07Zm69.6,60.75s0,0-.05,0Zm230.62,21.84-1.52-.29c-5.14-.92-13.25-.74-29.42-.38-2.4.05-7.44.27-17.5.7a22.71,22.71,0,0,1-2.62,0c-1,0-2.72-.09-5.83-.17.33-.19.59-.37.83-.53a7.5,7.5,0,0,1,2.13-1.07,10.78,10.78,0,0,1,2.74-.57c.93-.1,2.21-.25,4.41-.65a39,39,0,0,0,5.52-1.45c2.41-.82,3.28-1.37,3.71-2.35A4.34,4.34,0,0,0,482,804a8.51,8.51,0,0,0-2.15-2.22,21,21,0,0,0-1.92-1.48c-.29-.2-.29-.2-.32-.27a2.33,2.33,0,0,1,.48-1.95,26.77,26.77,0,0,0,5.82-5.79c.14-.16.47-.54.13-.88s-.46-.2-.76,0a29.12,29.12,0,0,0-5.88,5.93l-.71.47c-.9.57-1.83,1.06-2.6.79-.34-.11-.48-.29-.9-.86a17.15,17.15,0,0,0-1.16-1.47l-.47-.52a23.91,23.91,0,0,0,10.25-6.11c3.09-3.12,7.28-4.76,10.68-7.47,3.71-3.17,7.45-6.54,12.5-6.78,1.79-.14,3.89.06,5.16,1.22a5.34,5.34,0,0,1,1.49,3.08c1.41,4.28-.27,9,1.74,13.21a10,10,0,0,0,5.69,5.92,3.72,3.72,0,0,0-.84,3.09c.41,1.62,2.17,2.33,4,3.09a13.56,13.56,0,0,0,5.12,1.05,11.37,11.37,0,0,0,4.23-.8c1.44-.57,2.79-1.11,3.5-2.48a5,5,0,0,0,.37-3.26,57,57,0,0,1,7.39.44,64.86,64.86,0,0,0,9-.24c2.93-.29,5.74-.9,8.64-1,5.86-.44,11.2.86,17,1.87,11.87,1.47,23.51,1.07,35.36,1.29,17,0,36-.12,52.76-.8,5.78-.21,11.61-.12,17.4.15,23.11,1.72,47.07,1.87,70.32,1.74,5.87-.07,11.74-.12,17.64-.69s11.51-1.8,17.39-1.38a145.25,145.25,0,0,0,17.58.39v-.4c-2.93-.07-5.85-.1-8.76-.33-5.85-.37-11.74-1.46-17.62-.88a185.09,185.09,0,0,1-26.22,1c-23.11-.59-47.12-1.09-70.11-3.15-17.59-1.14-35.23.43-52.82.17-10.47.09-24.7.19-35.09,0a154.18,154.18,0,0,1-17.3-.86c-7.15-1.33-15-2.63-22.31-1.18a61,61,0,0,1-12.78.93c-2.76-.17-6.06-.65-8.86-.24a7.39,7.39,0,0,0-3.84-3c-2.92-.89-5.51.81-7.4,2-.43.28-.92.63-1.41,1a10.37,10.37,0,0,1-2.85-1.41,43.86,43.86,0,0,1,7.4-2.1c7.32-1.3,15.62-.14,23,.3,7.75.71,15.58,1.65,23.36.53a68.49,68.49,0,0,0,7.77-1.2v-.4c-10.36-2-20.52-2.28-31-2.13-10.23-.06-21.5-.55-30.71,4.64l.17.36-.36-.24a8.94,8.94,0,0,1-2.17-3.21,27.88,27.88,0,0,1,7.7-3.64,36.18,36.18,0,0,1,8.64-1.77c5.07-.19,10.43,1.57,15.61,1.74,6.07.28,14.07,1.13,20.17,1.68,12,1.44,24.25.24,36.22.32,6.26.1,12.67.51,19.08.86l-6.81.24c-10,.18-20.15.74-29.83,3.27l.07.4a119.54,119.54,0,0,1,14.85-1c4.3,0,10.53.34,14.89.5,10,.65,19.78,1.36,29.84.08l0-.39a76.39,76.39,0,0,0-12.93-2.7c2.29.07,4.57.11,6.83.09,24.67.09,52.15-.07,76.82-.33,26.32-.53,59.55-2.77,85.7-.53l0-.4c-12-1.11-24-1.76-36.1-1.77-7.07.06-38.58.34-45.15.43-20.06,0-43.13-.22-63.16-.59-10.59-.21-25.59-.45-36-1.3-5.34-.37-12.85-1.09-18.14-1.06-10.57-.07-21,1.11-31.48.58-7.82-.4-17.06-1.15-24.86-1.09-5.3.09-10.51-1.4-15.84-.89a38,38,0,0,0-8.86,2.49,26.62,26.62,0,0,0-5.12,2.56l-.92.68L516,791.13a10.63,10.63,0,0,1-.66-3.11c0-1.27.11-2.85,0-4.43a35.72,35.72,0,0,0-.86-5c12.27.31,24.51,1.17,36.76,1.65-.92.09-1.85.18-2.81.23-5.56.35-11.12.65-16.72.95a35.73,35.73,0,0,0-16.31,4.27l.17.36a36.76,36.76,0,0,1,8-2.28,41.76,41.76,0,0,1,8.23-.35c5.56.1,11.17.2,16.79.25,2.81,0,5.64,0,8.51-.15a74.56,74.56,0,0,1,8-.4c5.67.16,11.57-.43,16.8-2.79l0-.14c6-.25,12-.49,18.12-.23,28.52.9,57.06,3,85.58,3.82,13.75.27,29,1.18,42.79,1.64,4.76.13,9.52.33,14.29.4l0-.4a693.18,693.18,0,0,0-71.22-6.3c-24.82-.62-53.89-1.79-78.62-1.71-7.14.18-14.31.89-21.41,1.14-19,.87-38-.43-57.09-.37v.05a8.39,8.39,0,0,0-2.25-3.79c-4-3.16-9.74-2.11-13.91.09.1-.09.18-.18.29-.27a18.79,18.79,0,0,1,4-2.92l.69-.32a51,51,0,0,0,6-1.75,118.14,118.14,0,0,0,13.52-5.19c6.49-2.79,12.92-6.16,19.38-9s13.6-4,20.29-6.4c13.47-4.87,26.85-9.47,40.6-13.35a94.4,94.4,0,0,1,17.09-3.48c6.09-.18,12.19-2,17.81-4.15,29-10.53,59.24-17.33,89.3-24.09,9-1.79,32.69-6.45,42-8.27,11.68-2.39,23.5-4.19,35.09-7.22,4.69-1.13,8.89-3.86,13.19-5.92a53.08,53.08,0,0,1,13.24-4.1c7.05-1.06,14.29-.74,21.32-2.5l7-1.67c6.93-1.76,14.22-1.8,21.13-3.58,4.69-1.19,9.18-2.77,13.73-3.78,1.73-.28,4.7-1.05,5.39-3.34s-.72-4.31-1.52-6a35.56,35.56,0,0,1-3.55-10.88c-1.74-6.87,1.36-13.52.49-20.51-.55-4.21-2.3-8.16-3.4-12.14a75.88,75.88,0,0,1-3-16c-.55-5.35-3.15-35.27-3.72-41.25-.9-11-1-22.14-3.49-32.94-2.19-10.76-3.56-21.73-4.87-32.68-2.06-16.45-2.76-33-5.37-49.45-1.61-11-4.75-21.68-8.18-32.21a54.76,54.76,0,0,1-2.16-7.86,64.21,64.21,0,0,1-.28-8.16A148.9,148.9,0,0,0,859,376.49a187,187,0,0,1-2.53-32.88c.08-4.15.8-8.23,1-12.39A32,32,0,0,0,855,318.88a54,54,0,0,1-2.69-16.12c-.54-8.29-.49-16.52-.5-24.84-.38-5.62-2-11-3-16.35a157.59,157.59,0,0,1-2.44-16.33c-1-11.91-2.76-37-3.66-49.57-.86-11-2.34-22-3.31-33,0,0-2.91-22.33-3.46-28.78a4.41,4.41,0,0,0,2.94,1.72c2,.16,3.13-.62,4.63-.94a11.58,11.58,0,0,1,3.5-.17c.07,1.38,0,3.28,0,5.81-.07,2.37-.15,5.33-.14,8.87a75,75,0,0,0,.56,10.57,23.55,23.55,0,0,1,.14,5.65c0,.62-.08,1.19-.12,1.72-.25,3.24-.45,5.8,1.67,7.64a4.81,4.81,0,0,0,1.19.77,5.88,5.88,0,0,0,.64,1.45c.28,7.42,2,20.29,2.87,26.5.55,4.63,1.42,9.29,1.32,13.9-.64,9.34-1.08,18.76-.87,28.14a57.69,57.69,0,0,0,1.59,14.21c1.21,4.56,3.09,8.77,3.76,13.42,1.43,6.93.35,13.91.8,20.95.76,7.05,1.84,13.95,2.59,21,1.66,13.95,2.75,28,4.41,42,.53,4.5,1.21,9.29,1.55,13.92s.58,9.24.73,13.95c.31,9.43,1,18.77,1.79,28.18a79,79,0,0,0,2.39,14.06,48.89,48.89,0,0,1,.8,13.44c-.61,4.79-1,9.8.07,14.54,1.27,7.21,4.67,13.26,6.34,20.17,2.84,13.62,4.6,27.71,6.8,41.49,2.7,20.4,6.24,42.16,7.28,62.7,1,18.78,7.86,36.79,8.16,55.53a132.44,132.44,0,0,0,.75,14.2,72.13,72.13,0,0,1,.88,13.82l-.06,7.06a30,30,0,0,0,.5,7.33l.42,1.68a2,2,0,0,1,.06.49.26.26,0,0,1-.05.15c0,.24-1,.59-2,.67-5.71.33-11.81.11-17.58.88a20.61,20.61,0,0,0-3.64.74c-9,2.62-17.78,5.89-26.86,8.29-9,2.6-18.3,2.67-27.61,3.1l-7,.28a44,44,0,0,0-5.43.34l-1.78.37c-4.62.84-8.71,3.71-13.23,4.54-3.38.71-7,.31-10.48.87a27.18,27.18,0,0,0-6.91,2.26c-4.36,2-9.08-.4-13.65.68-3.48.75-6.66,2.09-10.19,2.37-2.25.23-4.6.21-7,.36-7.11.38-14,2.72-20.77,4.59-4.51,1.23-9,2.84-13.4,4.38-8.82,3-18.05,4.69-27.21,6.66l-.6.12c-1-.14-2-.3-3-.51l-.1.39c.55.15,1.11.28,1.66.4-17.74,3.49-35.36,7.48-53.07,11.09-13.76,2.91-27.74,5.11-41.18,9.37s-26.45,9.64-39.49,14.93c-7.92,3.22-18.32,6.07-26.74,8.61l.1.39L542.11,762c9-2.61,17.71-6.26,26.41-9.72s17.56-6.59,26.47-9.44c13.44-4.16,27.38-6.24,41.14-9.06,13.84-2.55,27.51-5.86,41.35-8.4,5.3-1.07,10.61-2,15.91-3.08a41.23,41.23,0,0,0,9.68,0c5.24-.75,10.31-1.74,15.56-2.32,10.44-1.4,20.63-4,31-5.92,4.67-.86,10.79-2,15.43-3,7.71-1.59,15.74-1.23,23.46-3,7.41-1.7,15.57-3.4,23-4.59,8.9-1.57,22-2.35,31.14-3.09,10.47-.88,21.2-1.67,31.39-4.34,8.54-1.8,17.17-3.8,25.79-5.16,5.68,0,12.06,1,17-3s3.16-7.47,1.7-12.42a24.33,24.33,0,0,1-.45-7.39c.24-7.73-.51-16-.67-23.72-.36-7.92-2-15.77-3.21-23.54-2.46-15.5-4.58-31.1-5.79-46.73-.93-10.47-.77-20.94-1.31-31.41-1-18.13-3.24-44.4-4.52-62.83-1-10.49-3.58-20.7-5.12-31.08A172.77,172.77,0,0,1,896,417.55l-.4,0A173.35,173.35,0,0,0,896.72,449c1.41,10.4,3.89,20.62,4.71,31.08,1,18.23,2.94,44.73,3.73,62.8.43,10.49.18,21,1,31.49,1.34,21,4.64,41.78,7.7,62.52.63,4.49.72,11,.85,15.59.19,5.25.43,10.45.22,15.61a27.65,27.65,0,0,0,.44,8.26c.4,1.91,1.23,3.66,1.47,5.44a3.92,3.92,0,0,1-2,3.45c-4,3.12-9.23,2.21-14.13,2.1-4,.08-8.06,1.23-12,1.87-9,1.54-18,3.84-26.9,5.3-13.59,1.59-29.39,2.47-43.06,3.92-7.91,1-15.64,2.61-23.4,4.39-4.32,1-10.86,2.76-15.19,3.19-10.47.63-20.91,3.16-31.13,5.41s-20.34,5.11-30.67,6.84c-5.16.79-10.35,2-15.46,3a41.57,41.57,0,0,1-6.42.48,216.69,216.69,0,0,0,22.27-5.51c4.48-1.53,8.8-3.06,13.36-4.26s9-2.58,13.55-3.51,9.14-.83,13.89-1.21c3.55-.23,7-1.6,10.35-2.33s6.92.6,10.44.19c2.4-.14,4.68-1.48,6.88-2.21,4.45-1.64,9.11-.7,13.77-1.63s8.66-3.62,13.34-4.49a21.25,21.25,0,0,1,3.26-.51c8-.28,16.61-.47,24.63-1,9.47-.59,18.66-3.53,27.63-6.41,5-1.53,10-3.26,15-4.52a85.88,85.88,0,0,1,12-.83c3.7-.36,12.81,1.36,11.71-5l-.42-1.73a28,28,0,0,1-.38-6.67c0-4.32.35-9.84.05-14.17-.76-7.08-1.58-13.82-1.44-20.94-.09-14.21-4-28.1-6.21-41.94-1.73-9.24-1.67-18.53-2.55-27.87-.41-4.69-.9-9.36-1.41-14-1.71-12.83-3.63-29.17-5.53-41.91-1.79-11.61-3.26-23.3-5.66-34.86-1.56-6.76-5.07-13.33-6.26-20.05-1-4.5-.58-8.92,0-13.43.72-7.23-.75-14.4-2.45-21.36-1-6.83-1.35-13.88-1.92-20.81-.83-9.37-.83-18.72-1.73-28.11-.38-4.26-1.1-9.65-1.7-14-2.34-18.61-3.91-37.32-6.7-55.89-.34-2.32-.72-4.64-1-6.9-.53-7,.38-14.16-1.19-21.13-.74-4.66-2.77-9.1-4-13.58a55.27,55.27,0,0,1-1.74-13.65c-.36-9.38-.11-18.71.28-28.09,0-4.79-1-9.39-1.66-14l-2.16-13.91c-.59-3.9-1-7.81-1.33-11.74a4.74,4.74,0,0,0,4.44,1.56c3.65-.69,6.43-2.09,10.06-2.37,3.45-.58,7,.15,10.48-.42a14.31,14.31,0,0,0,1.88-.5,4.23,4.23,0,0,0,1,1.48,4,4,0,0,0,1.47.93,4.56,4.56,0,0,0,1.18,2.61,3.62,3.62,0,0,0,.7.57,5.79,5.79,0,0,0,.76,3,5.22,5.22,0,0,0,2.08,2,5.5,5.5,0,0,0,2.42,3.53c0,.57,0,1.22,0,2a33.16,33.16,0,0,0,.39,4c.1.68.21,1.41.32,2.46a82.07,82.07,0,0,1,.28,8.43c-.22-1.29-.46-2.57-.74-3.85l-.4.07a68,68,0,0,1,.36,12.59c-.07.46-.13.92-.19,1.38-.15-1.52-.31-3-.45-4.54a193.46,193.46,0,0,0-3.94-25.34l-.39.06q1,12.7,1.14,25.44c-.26,8.52-.38,17,1.35,25.42l.4,0a52,52,0,0,0,2.09-12,12.67,12.67,0,0,0,1.12,2.63c1.44,2.55,3.12,4.08,2.79,7-.41,5.46-1.09,11.51-.32,17.07.38,2.69,1.39,9.93,1.69,12.53.18,1.4.33,2.81.59,4.24l.4,0a42.87,42.87,0,0,0,1.25-8.25,14.19,14.19,0,0,0,2.09,5.12h.4a10.65,10.65,0,0,0,.92-2.36,7.1,7.1,0,0,0,.63.58l.12.08c.06.43.13.88.24,1.34a4.83,4.83,0,0,0,3.61,3.2h.06a14,14,0,0,0,.69,3.93,18.21,18.21,0,0,0,1.5,3.21h-.18c.09,3.46.36,8.28.36,11.7a25.26,25.26,0,0,1-1.69,8.35c-1,2.92-.76,6.11-.69,9.08.46,9.18,1.29,20.19,1.94,29.34a41.27,41.27,0,0,0,1.87,9,72.09,72.09,0,0,0-.78,8.8c.25,10.57.74,21.36,2.85,31.77l.4,0c-.08-3.55-.16-7.08-.06-10.61s.23-7,.46-10.55c.15-2.11.39-4.24.47-6.38.61,2.77,1.18,5.56,1.76,8.37a37.38,37.38,0,0,0,.5,10.45,33.23,33.23,0,0,1,1.06,6.61c.07,2.42.89,5.5,3.93,5.56.11,0,.21,0,.31,0,.64,8.8,1.09,17.62,1.3,26.45.26,11.83-.14,23.78,1.46,35.53,1.89,16.44,2,33.23,6.88,49.18l.39-.11a137.75,137.75,0,0,1-4.1-28c-.42-9.44-1.21-18.91-1.9-28.32s-.07-18.87-.11-28.34-.31-19-.83-28.46l-.12-2.11-2,.7c-.53.15-1.12.33-1.4.05a7.16,7.16,0,0,1-.39-2.41,37.76,37.76,0,0,0-1-7.13c-.84-4.28-.12-9,.22-13.37.2-9.34-.41-18.48.14-27.79.38-14-1.22-27.87-2.14-41.83-.2-2.44-.38-4.88-.57-7.32a6.06,6.06,0,0,0,3.35-1.29,10.57,10.57,0,0,1,3.78-2.14c.33-.1.67-.18,1-.26l-.09.29a9.4,9.4,0,0,1-2.25,3.43l-.32.31.27.35c.52.68,1.76,2.11,3,2.11a1.41,1.41,0,0,0,.45-.07,1.31,1.31,0,0,0,.77-.67,35.67,35.67,0,0,0,3.13,12.47c.21,3.05,1.47,20.91,3.47,37.31,2.08,17.12,5,33.31,6.29,40.22.52,2.86,1,5.32,1.4,7.5,1.74,9.25,2.47,13.08,2.39,19.91,0,3.33-.25,5.75-.44,7.89a46.88,46.88,0,0,0,.12,12c.25,1.87.56,3.54.86,5.14.33,2.27.75,4.5,1.13,6.74a56.44,56.44,0,0,1,.42,5.63,69.23,69.23,0,0,1-.21,7.69c0,.62-.09,1.23-.13,1.85a61.74,61.74,0,0,0,.5,12.53c.45,6.58,1.92,13.14,2.89,19.5,1.73,10.8,2.83,21.66,3.51,32.58.38,5.47.54,10.88.71,16.42A207.48,207.48,0,0,0,952.87,557c2.63,19,3.65,38.2,5,57.32.29,4.74.55,12.12,1.51,16.59,1.51,10.91,5.51,21.26,6.34,32.22,1.27,10.9-.84,21.81-.53,32.76-.11,10,1.53,22.83,2.64,33,1.77,17.73,3.26,35.54,4.29,53.33,0,4,1.18,8.28,1.46,12.34.13,1.58.23,3.18.32,4.78a7.38,7.38,0,0,0-2.44,2,6.59,6.59,0,0,0-1.1,2.29,7.19,7.19,0,0,1-1,2.22,10,10,0,0,1-3,2.61,17.93,17.93,0,0,1-4.27,2l-1,.35a35,35,0,0,0-3.42,1.41c-.57.26-1.14.53-2.11.92a46.78,46.78,0,0,0-9,1,204.88,204.88,0,0,1-30.09,3c-12.81.51-27.79-.24-57.62-1.74-11.91-.6-19.14-1.06-25.53-1.46-8.07-.51-14.45-.92-26.43-1.33-17-.58-30.29-.65-39.1-.7l-7.84,0c-13.24,0-21.33.2-28,.37-8.6.22-14.81.37-26.78,0-12.85-.39-19-1-24.41-1.52a233,233,0,0,0-23.37-1.26c-12.58-.17-19.15.22-25.51.6a271.11,271.11,0,0,1-27.43.44c-25.81-.67-40-1-42.7-1.68-6.54-1.53-10.67-1.26-18.16-.75a18.91,18.91,0,0,0-7.61,2c-.46.25-.88.49-1.27.74a14.12,14.12,0,0,0-3.42,1.82c-1.08.84-1.92,1.65-2.8,2.32C525.93,815.47,522.77,814.88,519.88,814.33ZM909.61,334.56c-1.06-6.67-2.15-16.38-3-23.21a95.16,95.16,0,0,1-.87-11.51c0-2,.76-3.68,1.1-5.59,1.17-5.73-.16-11.58-.69-17.29l.3.44a14.94,14.94,0,0,0,1.49,3.18,8.19,8.19,0,0,0,5.2,4.07c0,2.51-.08,5-.13,7.52,0,8,.13,19.74.22,27.79.41,9.3-.85,18.42-.65,27.67-.13-.64-.26-1.28-.4-1.92C911.32,341.87,910.1,338.42,909.61,334.56Zm-13.82-90.1-.39.06c0-.07,0-.14,0-.21-.29-3.54.2-7-.37-10.59a6.87,6.87,0,0,0,2.17.88c-.18.88-.38,1.93-.53,3.15a19.52,19.52,0,0,0,.58,8.3,22.73,22.73,0,0,1,.81,6.69C897.42,250,896.63,247.2,895.79,244.46ZM31.27,651.33c-.59,2.84-1.13,5-1.66,7.07s-1.07,4.26-1.66,7.1l0-.08C28.77,660.66,30.1,656,31.27,651.33Zm902.39-348.4h.06s0,0-.06.05ZM442.11,815.19h0c0-.05-.05-.09-.07-.13Zm49.28-13.47a11.79,11.79,0,0,1-3.67-.72c-1.6-.61-3.59-1.37-4.05-3.15-.25-1,.25-2.37,1.48-4.15a19.45,19.45,0,0,1,4.79-4.8A32.24,32.24,0,0,1,500,784.06c2-.67,3.07-.9,4.18-.46,2.16.84,3.33,3.52,3.22,5.64a19.9,19.9,0,0,1-1.14,3.94l-.34,1c-.33.95-.44,1.28-.37,1.4s.57.22,1.34.2a11.71,11.71,0,0,1,3.32.33c.94.24,4,1.18,4.21,3a2.74,2.74,0,0,1-1,2.11c-1.1,1-2.35.82-3.93.62a17.87,17.87,0,0,0-4.4-.12,9,9,0,0,0-2.16.46,8.31,8.31,0,0,1-2.54.47c-.24,0-.46,0-.66,0a13.39,13.39,0,0,1-2.21-.23c-.7-.12-1.62-.27-3-.44S492.16,801.79,491.39,801.72ZM924.29,296.8c-.16,2.3-.26,3.81-1.52,5.06a5.56,5.56,0,0,1-4,1.49,7.19,7.19,0,0,1-1.19-.1l-.64-.1.27-.6a6.76,6.76,0,0,1,1.48-2.15,6.52,6.52,0,0,1,1.28-1,4.26,4.26,0,0,0,1.17-1c.67-.82.93-1.41.8-1.74s-.41-.32-.91-.45a2.49,2.49,0,0,1-1.81-1.13,2.44,2.44,0,0,1,.45-2.7,2.9,2.9,0,0,1,3.66-.18C924.53,293.16,924.42,294.85,924.29,296.8Zm-831.66,37a47.27,47.27,0,0,1,.65-8.2c1.44-10.78.85-21.64,1.11-32.48q.24-8.16.92-16.28l.37-4.06a12.5,12.5,0,0,1,.92-4,11.13,11.13,0,0,1,5.79-5.69l2.17.36a10.55,10.55,0,0,0-6.33,9.41l-.32,4.05c-.39,5.41-.63,10.84-.72,16.26-.13,10.85.59,21.77-.72,32.6a45.39,45.39,0,0,0-.54,8c.14,2.65.55,5.4.5,8.17a34.32,34.32,0,0,1-1,8.21c-1.21,5.28-.93,10.71-1.35,16.09-.12,2.63-.6,5.49-.74,8.07a40.27,40.27,0,0,0,1,7.89,73.36,73.36,0,0,1,1,16.48c-.33,4.14-1.56,8.06-2.26,12.06-.55,4-.57,8-.72,12.05-.3,8.18-.38,16.24-.39,24.42s-1.18,16.21-1.13,24.37A81.53,81.53,0,0,1,89.77,488a61.64,61.64,0,0,0-1,7.9c-.43,4,.31,8.17-.19,12.29a42,42,0,0,1-2,8.16,13.05,13.05,0,0,0-.11,7.2,22.34,22.34,0,0,1,.85,6.43c0,2.12-.72,4.29-1,6.29-1.67,10.44-5.16,21.26-3.28,31.79a28.39,28.39,0,0,1-.09,8.68c-.51,2.86-.87,4.36.28,6.94a16.82,16.82,0,0,1,1.49,4.3,7.86,7.86,0,0,1-1.12,5.15,8,8,0,0,0-1,3.1c-.28,1.93.19,3.51.51,5.59.14,2-.12,4.52-.17,6.41-.6,12.36-1.08,28.39-1.74,40.72-.15,5.4-1,10.92-1.61,16.25-.27,2.7-.32,5.42-.48,8.06-.46,10.54-1.18,22-1.64,32.5l-.2,4.07c-.08,1.37-.11,2.68-.27,4.17-.34,2.58-1.79,5.38-2.11,7.84a2.47,2.47,0,0,0,.13,1.29c.22.35.16.37.79.56,1.21.31,2.64.62,4,1,2.61.71,5,1.94,7.64,2.2a61.57,61.57,0,0,0,8-.14c5.44-.06,10.87.67,16.33.55s10.84.09,16.28.17v.4c-9.5.31-19,.93-28.55.62-4.16-.21-7.95.75-12.26.46-2.79-.18-5.4-1.38-8.05-2-3.37-.94-7.12-.52-6.8-5.32a41.25,41.25,0,0,1,1.52-6.15,22.58,22.58,0,0,0,.5-5.73c.14-9.32.61-19.25.9-28.49.09-3,.3-9.46.4-12.27.17-6.84,1.51-13.48,1.54-20.29.63-12.42.93-28.22,1.61-40.66,0-1.31.31-4.63.23-5.79-.77-3.53-1-7.66,1.07-11.1a3.65,3.65,0,0,0,.64-2.63c-.47-2.3-2.36-5.15-2.24-8s1-5.34,1-8.16c.11-4-1.11-8-1-12.05a131.08,131.08,0,0,1,2.47-24.65A43.88,43.88,0,0,0,82,529.92a19,19,0,0,0-.71-5.63,16.4,16.4,0,0,1,.26-8.87,39.28,39.28,0,0,0,2-7.61c.48-4-.19-8,.29-12.11a61.87,61.87,0,0,1,1.15-8.24,80,80,0,0,0,1.18-15.95c0-8.14,1.21-16.28,1.36-24.41s.24-16.34.61-24.44a121.42,121.42,0,0,1,.86-12.32c.73-4,2-7.91,2.35-11.91a72.57,72.57,0,0,0-.81-16,40.25,40.25,0,0,1-1-8.24c.18-2.84.66-5.35.83-8.14s.35-5.38.48-8.11c0-4.09,1.22-8.12,1.89-12.12S92.87,337.9,92.63,333.77Zm-24-60.63,0-.4c3.47-.65,7.07,1.09,7.75,4.86,1.11,3.21,1.06,6.12-1.07,8.95l-.4,0a9.31,9.31,0,0,1-1.89-6.41,9.1,9.1,0,0,0,0-3.75C72.49,274.53,70.56,273.68,68.65,273.14ZM37.15,787c-1.43-19.4-1.39-39.13,1.43-58.4,1.1-6.4,2.08-12.8,3.81-19.1l.39,0a122.9,122.9,0,0,1-.23,19.57c-.56,6.52-2,12.76-2.67,19.19A384.59,384.59,0,0,0,37.54,787Zm9.73-95.08C46.32,670.8,48.28,649,50.3,628c.64-7.36,1.76-17.86,2.55-25.31.45-4.23.91-8.46,1.51-12.72h.4a153.11,153.11,0,0,1,.74,25.69c-.32,8.55-2,17-3.2,25.45-1.7,12.64-3.32,25.31-4.25,38l-.77,12.76Zm9.76-67.16A235.93,235.93,0,0,0,55,669.19h.4c.31-5.93.66-11.84,1.24-17.72a185.36,185.36,0,0,1,3.46-24c-.45,11.57-.77,23.17-1.86,34.68a106.61,106.61,0,0,0,1.87,35.53l.4-.08A106.53,106.53,0,0,1,58.88,680a122.64,122.64,0,0,1,1.34-17.62c1.52-11.81,2.23-23.66,3.09-35.51a707.09,707.09,0,0,0-.06-71.18l-.4,0c-1.42,11.81-2.31,23.67-2.76,35.54-.13,3.14-.16,6.28-.14,9.42A17.91,17.91,0,0,0,56.6,607a24.63,24.63,0,0,0-.73,9.4C56.24,619.55,56.83,622.08,56.64,624.73ZM60,604.12c.06,4.57.19,9.14.22,13.7-.12-.66-.25-1.33-.38-2A26.57,26.57,0,0,1,60,604.12Zm-2.86-23.59-.39-.1a207.56,207.56,0,0,0,2.68-26.31c.16-4.37-1-8.63-1.26-13-.28-4.65,1.15-9.81,4.59-13l.34.21a25.7,25.7,0,0,0-1,12.47,53.14,53.14,0,0,1,.8,6.62c.11,6.82-1.2,13.59-2.5,20.17A107,107,0,0,1,57.13,580.53Zm5.79-92.78a57.65,57.65,0,0,1,.32-18,72.46,72.46,0,0,1,2.2-9.54c.36-.76,1.25-1.15,1.83-1.53l.29.27c-.66.77-1.32,1.2-1.23,2.25-.09,2.86-.22,6-.29,8.82a96.73,96.73,0,0,0,1,17.29c.78,6-.62,12-1.1,17.91-.84,11.71,1.65,23.57,0,35.29a95.82,95.82,0,0,1-2,11.67l-.39-.08a101.19,101.19,0,0,0,1-23.37c-.72-7.81-2-15.7-1.81-23.64C62.94,499,63.71,493.61,62.92,487.75Zm7,13.86c-.24-12.83-.63-25.66.25-38.49.29-4.3.37-8.58.82-12.88l.4,0a171.24,171.24,0,0,1,2.18,23.5c.12-2.4.25-4.8.43-7.2.07-1.73.58-5.41.36-7.06-1.07-3.53-2.53-8.31,1.56-10.94,2.13-1.15,4.46.46,5.58,2.26A10.25,10.25,0,0,1,83,455.63c.65,6-1.55,11.7-1.3,17.47.47,8.78-1,17.59-2,26.24a103.85,103.85,0,0,0-.2,17.37l-.39,0a97.62,97.62,0,0,1-.64-17.51c.42-5.84,1-11.6,1.12-17.39a66.78,66.78,0,0,0-.19-8.61,39.09,39.09,0,0,1,.52-8.92c.28-3.8,1.34-10.53-2-12.88-.27-.12-.3-.2-.47-.09a1.92,1.92,0,0,0-.62.86c-.64,2.06.34,4.23,1,6.34a13.32,13.32,0,0,1,.25,3.8c-.2,7.23-.43,14.57-.84,21.79-.27,5.08-.91,12.26-.72,17.3a115.53,115.53,0,0,1-1,17.54l-.4,0c-.35-5.83-.75-11.6-1.39-17.36-.19-1.41-.31-2.83-.39-4.26-.2,3.65-.48,7.29-.87,10.91-1.12,10.61-2.47,21.28-2.59,31.94q0,6.4.65,12.82l-.4,0C66.94,536.05,69.07,518.72,69.89,501.61Zm6,51.38c5.54-2.92,2-9.73,2.61-14.45A176.87,176.87,0,0,0,78.07,519c.06.14-.12-.51-.49-.55-.14-.19-.91.18-.87.63a14.66,14.66,0,0,1,0,2.81c-.14,3.05-2.35,5.25-3.23,8.06a24.15,24.15,0,0,0-1.39,8.86h.4a23.61,23.61,0,0,1,1.78-8.56,18.15,18.15,0,0,1,2.08-3.82c.17-.26.33-.53.47-.8-.08,4.62-.13,9.27-.56,13.86-.2,2.55.49,5.38.4,7.81a3.51,3.51,0,0,1-2.14,3.44A5.87,5.87,0,0,0,72,554.11c-1.09,3.46.52,5.88.35,9.13-.58,6.79-1.54,15.22-2.66,21.9a176.9,176.9,0,0,0-3.15,26.69c.32,6.17-2,11.66-1,17.85.69,2.94,1.91,5.73,2.73,8.61l.39-.08c-.18-1.48-.34-3-.63-4.44-1.12-4.35-.63-8.51.51-12.76A35.28,35.28,0,0,0,70,612c.82-8.09,2.36-18.2,3.55-26.29.81-7,1.42-15.35,1.79-22.39.28-2.59-1.52-5.92-.76-8.47A3.13,3.13,0,0,1,75.89,553Zm.85-33.71h0S76.73,519.23,76.74,519.28Zm-2.63-93.35c-.67-5.59-1.54-10.91-.9-16.57l.38-.11A18.8,18.8,0,0,1,75,411.51a30.9,30.9,0,0,1,1.53-8.59l.4.05a58.12,58.12,0,0,0,1.21,9.32c.33,1.53,1,3,.94,4.65A11.19,11.19,0,0,1,78,421.88l-.4.06,0-.05a29.91,29.91,0,0,1-.22,4c-.32,5.66-1,11.24-1.71,16.84l-.4,0C74.79,437.88,74.41,430.86,74.11,425.93Zm6.2-8.74c.11-3.84.85-7.37.53-11.16-.14-1.86-.43-3.75-.76-5.75l.36-.17a16.46,16.46,0,0,1,3.14,5.29,14.45,14.45,0,0,1,.68,2.15,18.89,18.89,0,0,1,1.92-9.48h.4c2.53,5.69,1.52,11.76,1.26,17.74-.28,3.45-.61,7.28-1,10.7h-.4c-.67-4.73-1.1-9.43-1.62-14.16,0-.16,0-.32-.08-.49,0,3.88-.9,7.82-1.33,11.42-.64,7.86-1.94,15.58-3.19,23.34l-.4,0C80,436.89,80.18,426.88,80.31,417.19Zm.75-91.47h.4c.16-2.19.29-4.38.42-6.58.23,4.05.48,8.09.64,12.09.1,3.77-2.17,10.6,3.57,11.35a4.87,4.87,0,0,1,1.22.12c.82.77.69,2.47.75,3.82-.17,6.13-1,12.25-1,18.46-.08,4.95.58,9.91.64,14.83a73.3,73.3,0,0,1-1.62,14.61l.39.1a69.84,69.84,0,0,0,2.46-14.68c.2-5-.21-9.87.13-14.8s.88-9.73,1.45-14.68c.18-3.38,1.72-9.82-3.13-10.72-.67-.12-1.26,0-1.6-.41-.71-1.1-.32-2.48-.1-4a62.55,62.55,0,0,0,.39-11.42c.14-4.92-.3-9.77-.64-14.68.15.88.29,1.78.4,2.7a105.78,105.78,0,0,1,.74,11.77l.4.05a48.72,48.72,0,0,0,1.38-18.08,55.46,55.46,0,0,1-.39-17.16c.14-1,.27-2.15.42-3.37.89,12.28.69,24.64.81,36.95l.4,0,.78-11.89c.54-7.93.84-15.9.69-23.86-.16-3.65.14-7.19-.67-10.84a1.8,1.8,0,0,0-2.84-1,2.51,2.51,0,0,0-.4.41A14.05,14.05,0,0,0,85.78,279c-.67,3.46-1.52,7-2,10.58a65.52,65.52,0,0,0-2.28-10l-.4.07c.29,4.5.46,8.91.49,13.33-.12-.41-.23-.83-.37-1.25A25.21,25.21,0,0,0,79.34,287l-.4.06c-1.17,6.46-.58,12.9.21,19.35C79.73,312.77,80.35,319.39,81.06,325.72Zm6.37-49.26v0h0Zm-8.2,99.59c-.09,2.07-.17,4.14-.16,6.22.52,5.32,1.25,9.73,1.12,15l.39.09c2.32-4.61,2.45-10.07,2.49-15.1.52-4.94,0-10.19-.35-15.15-.47-10-1.91-20.32-3.13-30.2l-.4,0c0,2.29,0,4.57.09,6.86-.22-2.56-.52-5.07-.55-7.67-.28-5.26.44-10.53.2-15.78s-1.3-10.51-1.72-15.74c-.28-3.09-.49-7.32-.74-10.48h-.4a197.6,197.6,0,0,0,.43,21.08c.61,7-.85,13.89-1,20.91s-.18,14,.14,21.05C76.35,363.41,75.54,370.73,79.23,376.05Zm.34-15.24c0,2.27,0,4.49,0,6.37s-.07,3.53-.14,5.29a17.55,17.55,0,0,1-.2-2.29C79.34,367,79.48,363.93,79.57,360.81Zm-4.5,24.8c-.88-4.23-1.24-8.3.63-12.47l.4,0a17.34,17.34,0,0,1,2.21,6.09c.45,2.06,0,4.17,0,6.27a56.63,56.63,0,0,1-.51,6.32A56.18,56.18,0,0,1,76.47,398l-.4-.05A99.65,99.65,0,0,0,75.07,385.61Zm85.69,359.58A118.56,118.56,0,0,0,174,743a38.3,38.3,0,0,1,13.76-1.69c2.32.16,4.55.43,6.76.52,4.43.14,9-.47,13.51-.53,9.93-.24,22.42-.29,32.39-.32a3.64,3.64,0,0,1,1,.11c2.23.65,4.85,1,6.82.16a5,5,0,0,0,2.19-1.6,7.81,7.81,0,0,1,3.51-2.2c4.17-1.13,7.82.24,11.62,1.23,3,.2,6.1,0,9.06.28,10.85.64,21.63,1.22,32.43,2.4,4.17.93,8.44,2.54,12.73,1.74a78.15,78.15,0,0,0,8-2.13,28.48,28.48,0,0,1,6-.72c-10.58-.82-24.74-2-34.75-3l0-.4c10.55,0,25.87.24,36.58.38a170.47,170.47,0,0,1,22.82,1.34A131.62,131.62,0,0,1,372,740.89l0,.4c-9.64,1.25-19.23.8-28.81-.1,4.16.79,8.28,1.92,12.35,2.76,4.43.92,8.74.43,13.31.68,9.25.46,18.23,3.14,27,5.85,17.45,4.95,35.1,9.3,52.39,14.88,3.27,1,6.56,2.06,9.74,3.41s6,3.11,9.27,3.76c2.21.53,4.42.15,6.67.29A25.17,25.17,0,0,1,480.7,774a15.87,15.87,0,0,1,5.8,3.7l-.27.29c-3.38-3.09-7.94-4.07-12.39-4-2.26,0-4.63.47-6.9,0-3.47-.52-6.63-2.1-9.77-3.43s-6.39-2.09-9.64-3c-12.62-3.42-26.76-7.07-39.52-10.09-8.77-2.07-17.5-4.78-26.25-6.88a83.79,83.79,0,0,0-13.13-1.9c-4.48-.19-9.32.28-13.84-.66s-8.71-2.3-13.24-3c-4-.63-8.74-1.3-12.58-.29-2.07.63-4.7,1.37-6.77,1.76a18.72,18.72,0,0,1-7.37.4,41,41,0,0,1-7.63-1.81c-10.81-1.48-21.84-2.11-32.72-3-3.2-.32-6.54,0-9.62-.45-3.92-1-9-3.22-12.26-.05-2.82,3.47-8.13,3.38-11.91,2.15h0c-.31,0-1.65,0-2,0-9.28,0-21.38-.15-30.58,0-4.6,0-9,.58-13.69.38s-8.89-1.13-13.38-.48a53.48,53.48,0,0,0-6.55,1.37,117.75,117.75,0,0,1-13.58,2.06c-5.7.36-11.27.45-16.83,1.77a35.72,35.72,0,0,1-10.37.19c-4.49-.37-9-.56-13.53-.5-6.62.35-13.82-.41-20.45-.85-3.36-.39-6.83-.08-10.2-.64-2-.29-4.74-1-5.33,1.49a2,2,0,0,1-1.09,1.63,2.54,2.54,0,0,1-1.91-.31A31.44,31.44,0,0,0,75,747.33a16.81,16.81,0,0,0-3.29-.58l-1.7-.11c-3.54-.29-2.7-5.34-1.39-7.44l.35.21c-1.06,1.7-1.49,4.6-.29,6.17.48.7,2.3.54,3.07.62a26,26,0,0,1,9.79,3,1.93,1.93,0,0,0,1.35.27c.38-.13.49-.55.63-1.13.58-3,4-2.54,6.18-2.14,3.36.49,6.75.13,10.17.47,6.67.35,13.69,1,20.32.55,4.57-.12,9.12,0,13.67.31a39.41,39.41,0,0,0,6.68.12,50.17,50.17,0,0,0,6.61-1.13C151.63,745.6,156.26,745.65,160.76,745.19Zm-23.23-4c11.47-1,22.86-2.52,34.4-1.82l.06.39a85.75,85.75,0,0,1-8.42,2.26,84.05,84.05,0,0,1-17.22,2.33l-8.7,0a151.85,151.85,0,0,1-17.34-.57,138.89,138.89,0,0,0-17.19.06l-.05-.4a124.65,124.65,0,0,1,17.28-1.66A148.91,148.91,0,0,0,137.53,741.18Zm210,13c-4.94.05-10-.09-15.14-.3,2.79.87,5.53,1.87,8.26,2.88l-.1.39c-4.94-.57-9.79-1.36-14.73-1.75-5-.08-9.92-.39-14.57-2.48v-.25c-5.44-.35-10.84-.69-16.08-.92l-13-.74c-18.87-.51-37.72-1.1-56.6-1-5.85-.09-11.59-.58-17.43-.49a172.7,172.7,0,0,1-17.46-.56,27.58,27.58,0,0,0-16.72,3l-.19-.36a28.33,28.33,0,0,1,17-3.42,165.1,165.1,0,0,0,17.38.15c5.79-.21,11.65.14,17.43.1,18.87-.6,37.81-.28,56.7-.1l13.07.52c16.83.48,35.47,1.88,52.15,1.36,29.34-1.47,58.45,5.49,85.8,15.63a119.3,119.3,0,0,1,15.78,7.6l-.18.35a150.52,150.52,0,0,0-24.54-8.65C399.36,758.15,373.54,753.37,347.54,754.17Zm-15.48,27c-15.09,1.76-31.56,3.36-46.69,2.91-12.11-.64-26.76-1.13-38.79-1.21-2.36,0-5.36,0-7.78,0a72.64,72.64,0,0,1-7.92-1.28,40.41,40.41,0,0,0-22.4,1.58l-.17-.36a31.72,31.72,0,0,1,15-4.9c5.16-.53,10.45.72,15.51,1a135.39,135.39,0,0,1,15.6.18c14.93.83,31.52,3.09,46.51,2.88,9.08.16,21.88-.62,31-1.13Zm-35.42,3.62-.07-.39a123.18,123.18,0,0,1-21.08,1.7c-17.68-.67-35.46-1.85-53.1.27-7,1-14,1.68-21,2.13-2.62.24-5.6.26-8.39.67a2.75,2.75,0,0,0,.63-.72,2.09,2.09,0,0,0,.21-1.53c-.35-1.47-2.24-1.78-3.44-1.79-.86-.06-2.8,0-3.67,0-6.32.21-12.48,1.19-18.73,1.63a178.43,178.43,0,0,1-37.18-.66c7.61-.23,15.18-.53,22.56-.79,8.77-.62,17.49-.63,26.26-1.08q8.79-.37,17.58-1.37v-.4c-11.74-.83-23.43-1.44-35.2-1.61l-2,0,1.79-.22a166.24,166.24,0,0,1,38.81-.33l.05-.4a167.94,167.94,0,0,0-39.07-1.26c-6.48.63-12.94,1.13-19.43,1.53s-13.06.74-19.54,1.56-12.82,1.72-19.32,2.23h0c-15.59.19-31.18-.21-46.72,1.43l0,.4q4.95-.23,9.9-.31a140.44,140.44,0,0,0-21.4,3.21l.06.4c9.76-.62,19.42-.75,29.16-.53,3.25,0,6.41.16,9.68.37a124.6,124.6,0,0,0,19.74-1c3.4-.43,6.83-.93,10.24-1.48,5.51,0,11-.19,16.56-.36,0,.09-.07.36-.07.36A154.62,154.62,0,0,0,168.09,790h.54c-.68.18-1.35.34-2,.46-5.2.88-10.26-.1-15.66-.06-7.41,0-24.61,0-31.79-.18-10.68-.16-21.24-.4-32,0-6.26.25-14.88,1.18-21.21,1.8a107.78,107.78,0,0,1-15.55.44c-1.85-.11-3.42-.61-5.39-.64A24.31,24.31,0,0,0,42,792a10.17,10.17,0,0,0,1.32-2c.3-.75,1.36-2.88,1.67-3.63a37.71,37.71,0,0,1,2.29-4.34,8.26,8.26,0,0,1,3.62-2.24c5-1.89,10-.2,15.32-.33a90.78,90.78,0,0,1,10.52-.86c5.31-.18,10.57.15,15.9.11a47.24,47.24,0,0,0,15.65-3.43l-.14-.38a49.28,49.28,0,0,1-15.51,2.32c-6.4-.46-12.89-1-19.34-.93a44,44,0,0,1,9.52-1.23c2-.09,4,.2,6,.23l.09-.39a33.49,33.49,0,0,0-12.22-2.15,35.35,35.35,0,0,0-6.27.63c-1.37.18-2.23.57-3.18,0s-1.21-1.53-1.91-2.74c-2.59-4.56-3.11-9.72-3.08-14.88a5.29,5.29,0,0,0,3.3.29,4.74,4.74,0,0,0,3.21-2.16l-.22-.33a6.89,6.89,0,0,1-4.13-.85,2.12,2.12,0,0,1-.35-.24c0-.11.14-.54.29-1,2-5.39,1.42-11.39.13-16.87l-.39.05a50.09,50.09,0,0,1-1.61,11.62c0-4.5-.3-9-.18-13.47a17.35,17.35,0,0,1,.23-2c.25.37.51.74.76,1.09,1.65,2.37,4.19,4,5.85,6.21,5.82,9.92,19.57,8.42,27.08,1.32l-.25-.31c-6.09,4.28-15.21,6-21.28.87a9.37,9.37,0,0,1-2.72-3.7,21.87,21.87,0,0,0-2-2.82,15,15,0,0,0,3.19.59c2.47.39,5,.71,7.38,1.33a10.71,10.71,0,0,0,2.71.34c8.48.41,17,.15,25.45,0a57.5,57.5,0,0,0,20.05-3.28l-.13-.38a58.48,58.48,0,0,1-9.84,2.27c-10.06.88-20.31.2-30.38,0-2.08-.1-4.2-.24-6.28-.42-1.2-.2-2.43-.68-3.62-.88-1.68-.35-3.35-.66-5-1s-3.39-.44-4.28-1.28A4.94,4.94,0,0,1,67.9,727c0-3.28.43-6.75.52-10.09a16.11,16.11,0,0,0,0-2.6c0-.18.42-2.26.42-2.26.36-2.14,1-6.36,1.32-8.82.73-5.81,1.63-11.91,1.9-17.77.26-8.94-.17-17.8-.41-26.73-.23-5.85-.43-11.49.7-17.23.43-2.94,1.52-5.6,2.07-8.53a67.77,67.77,0,0,0,1.28-9c.32-6,.18-11.76.64-17.73.3-5.92,1.31-11.73,1.49-17.68a135.69,135.69,0,0,0-.57-17.81l-.4,0c-.08,3-.18,5.9-.37,8.84-.37,8.88-2.31,17.54-3.37,26.34-.75,5.81-.85,11.93-1.32,17.69a68.43,68.43,0,0,1-2.5,12.62A50.29,50.29,0,0,0,67.41,650c.27,14.78,2.54,29.41.9,44.16-.5,5.42-1.35,12.92-2,17.54l-.4,2.65a1.32,1.32,0,0,0,.11.64v0l0-.07c.1,2.17,0,4.76-.14,7.06a41.27,41.27,0,0,0,0,6.39,5.25,5.25,0,0,1-.67-1.13c-.67-1.61-.12-4,0-5.9a49.39,49.39,0,0,0,.16-7l-.39-.07c-.46,1-.88,2-1.29,3.07-.17-.86-.36-1.71-.54-2.55a53.93,53.93,0,0,1-1.4-12h-.4a50.4,50.4,0,0,0,.59,12.2,37.73,37.73,0,0,1,.6,5.5c-.39,1.2-.76,2.41-1.08,3.68a9.28,9.28,0,0,0-.19,3.38A24.84,24.84,0,0,0,60,732.66c-.49,6.12-.2,12.14-.82,18.22-.71,7.26-1.46,15.28,2.54,21.83.69,1.21,1.77,3.08,3.28,3.94-2.52-.16-5.21-.79-7.84-.92-.14-4.52-.3-11.12-.36-14.66-.37-17,0-34.31.79-51.21-1.39-10.1-2.16-20.19-3.08-30.35a4.85,4.85,0,0,0-.88-2.74,1.84,1.84,0,0,0-1.17-.49,1.64,1.64,0,0,0-.74.15,1.62,1.62,0,0,0-.66.52,4.52,4.52,0,0,0-.64,2A84.92,84.92,0,0,1,49,688.57c-1.36,5.62-2.69,11.62-2.51,17.49-.08,8.41-.17,17.75-.82,26.07a131,131,0,0,0-.47,17.49c0,5.78-.41,11.63-.11,17.46a32.38,32.38,0,0,1-.88,8.54,8,8,0,0,1-5.07,6.29l.14.37a8.55,8.55,0,0,0,5.58-6.49A33.27,33.27,0,0,0,46,767.06c0-8.63.82-17.45.83-26.11.74-8.65,1.74-17.42,2-26.11.27-5,.09-12.39,1.11-17.18.5-2.63,1.23-5.22,1.9-7.93.4,6.89.77,13.82,1.68,20.63a326.5,326.5,0,0,0,2.13,59.32q.39,3,.85,6c-.33,0-.65,0-1,0-3.93.14-8.2,1-11,4.12-2,2.83-3.17,5.9-4.79,8.9-.78,1.35-2.24,2.15-2.93,3.71a2.48,2.48,0,0,0,.8,2.75,3.86,3.86,0,0,0,1.87.72c2.91.3,5-.51,7.85.18,13.38,1.83,26.76-1.33,40.1-1.94,14-.8,28.26-.51,42.33-.62l21.24-.28c5.19-.11,10.8.8,16.11-.21,3.19-.49,7.49-2.85,10.15-.41a4.74,4.74,0,0,1,.59.93,4,4,0,0,0,3,2c3.9.32,7-2.71,10.35-3.72,2.8-.84,7.24-.89,10.28-1.21,3.53-.29,7.06-.62,10.59-1s7.06-1,10.54-1.49a237.06,237.06,0,0,1,31.64-1.71c7.08,0,14.14.52,21.22.46A124,124,0,0,0,296.64,784.79ZM64,752.36a.48.48,0,0,1,0,.15c-.11-.1-.17-.19-.15-.22S64,752.28,64,752.36Zm116.44,40.53a1.39,1.39,0,0,1-.47-.55,5.62,5.62,0,0,0-2.17-2.43l-.22-.1c3.09-.11,6.16-.28,8.73-.6a23.75,23.75,0,0,1-6.56,1.59l0,.4a15.8,15.8,0,0,0,6.46.38l-.64.32C184,792.58,182,793.71,180.46,792.89Zm39.6-23.09c-10.53,1.1-21.33,2.4-32,1.61a203.25,203.25,0,0,0-31.79.11c-7.14.2-14.23,0-21.33-.21s-14.29-.72-21.26-1.09a53,53,0,0,0-20.72,3.58l-.15-.37A56,56,0,0,1,119,769.64c5.22.23,10.76.4,15.94.47,7.08.08,14.18.14,21.23-.19a197.41,197.41,0,0,1,32-.66c10.62.63,21-.79,31.64-2,7.06-.79,14.17-1.39,21.25-1.88,13.89-1.12,28.56-1.42,42.48-2.48l31.76-2.94c3.08-.27,7.67-.78,10.74-.79,6.43-.19,15,.8,21.45,1.24,7.06.62,14.13,1.21,21.19,1.72,13,.78,26.7,2.88,39.73,3.92,7.94.1,16.05,0,23.85,1.8l-.06.4c-8-1.18-15.89-.56-23.9-.25-4.76-.08-13.73-.75-18.64-1.1-13.88-1-27.79-1.48-41.67-2.45a83.28,83.28,0,0,1,23.08,5.83q1.33,0,2.64-.06c9-.47,18.13-1,27.19-.49,4.36.12,9.05,1,13.32,1.23a31.59,31.59,0,0,0,4.24-.65,34.58,34.58,0,0,1,18.26,1.24l-.1.39A40.12,40.12,0,0,0,419.08,773a29.73,29.73,0,0,1-4.61,1.09c-4.76.23-9-.53-13.72-.43-9-.14-18,0-27,.05-3.27,0-6.71-.17-10.23-.38a13.35,13.35,0,0,1,1.22.57v.4a15.53,15.53,0,0,1-5,1.63c3.16-.09,6.29-.22,9.36-.44,5.36-.39,10.71-1,16-1.8l.07.39c-19.82,4.66-40.34,5.09-60.61,4.7-1.09,0-2.9-.08-3.93-.17a138,138,0,0,0-32.43.49l-.11-.39a53.84,53.84,0,0,1,7.87-2.63,69.45,69.45,0,0,1,24.83-1.58A321.41,321.41,0,0,0,355.35,776c-2-.24-4.14-.72-6-.88-3-.49-6.21-1.1-9.1-1.84l0-.39,10.35-.46c-7.6-.54-15.18-1-22-.83-10.5.41-25.39,1.78-36,2.62l-.05-.4c12-1.56,23.89-3.17,35.95-4.22,10.24-.63,22.07.18,33.19.49-7.85-.43-15.36-2.38-23.26-2.51-11-.32-22-.36-33-.74v-.4c13.6-1,27.1-2.15,40.76-2.18-6.18-.41-14.25-1.23-20.08-1S311,764.4,305,764.83c-7.57.53-24.61,2-31.94,2.11-10.31.19-21.62.71-31.87,1.29C234.16,768.61,227.11,769.11,220.06,769.8ZM928.9,797.54c6,1.11,12,2.12,18,3.32l0,.4c-3,0-6.06,0-9.1-.08s-6.07-.39-9.07-.61a32.37,32.37,0,0,0-6.43-.35c-2.12.17-3.86,1.31-5.68,2.31a17.22,17.22,0,0,1-7.51,1.48c-4.74,0-9.26-1.29-13.78-2.07-6.64-1.08-13.53-1.57-20.22-2.18-13.13-.7-27.7-1.4-40.91-2l-13.66.12,0-.4,13.66-.85c8.18,0,19.36-.09,27.37.07,10.88.08,23.59.41,34.31,1.54,4.48.52,8.87,1.55,13.28,1.6a14.6,14.6,0,0,0,5.82-1c1.78-.95,4.72-2.28,7.07-2.28A30.54,30.54,0,0,1,928.9,797.54ZM950,782.33a95.38,95.38,0,0,1-.35-9.54,122.71,122.71,0,0,1,.64-15.13l.4,0a75.92,75.92,0,0,1,3,15c.52,3.71-.18,7.37.25,11,.92,4.54,1.92,16.22-4.94,16.28-3.28-.14-6.32-1.37-9.46-1.76a58.07,58.07,0,0,0-7.47-.66l0-.4c5-.6,10.24,0,15.14.63,2.44.3,3.82-.3,4.12-2.82a19.37,19.37,0,0,0,0-7C951,786.15,950.31,784.24,950,782.33ZM946.58,767a64.61,64.61,0,0,1-1.21-9.81c-.09-3.27.35-6.05.45-9.28a37.26,37.26,0,0,1,.35-4.84l.39-.09a21.35,21.35,0,0,1,3,9.52c.24,3.43-.6,6.32-.54,9.45-.08,4.76,1.46,9.9-.72,14.46a20.11,20.11,0,0,1-2.35,4.27l-.35-.2A17.73,17.73,0,0,0,946.58,767Zm-2.89-14.32c-3.62,6.21-2.06,13.85-2.79,20.58a18.74,18.74,0,0,1-.88,4.55.56.56,0,0,1-.12.18h0c-2.13,0-4.54-.87-6.7-1.46a14.77,14.77,0,0,0-5.49-.39l-.07.39c2.47,1.32,4.36,2.57,6.69,4,5,2.76,10,2.44,9.77-4.43a80.2,80.2,0,0,0-.88-13.21,21.32,21.32,0,0,1,.86-10Zm-3.89,25.4s0,0,.08-.06C939.84,778.09,939.81,778.11,939.8,778.1Zm-77.35-.3-.09-.39c12.32-5.83,26.3-2.91,39.11-.58,4.24.85,8.69,2,13.22,3.35,3.51,1.05,7,2.19,10.4,3.47L925,784a197.52,197.52,0,0,0-31.66-5.34C883,778.23,872.86,777.42,862.45,777.8Zm-25.25,6.28c-18.11-.6-36.2-.5-54.33-.58-6.07-.14-12.12-.56-18.14-1.12s-12-1.29-18-2.21l0-.39A342.92,342.92,0,0,0,801,780.93c6-.21,12.1-.34,18.14-.44,8.73-.1,23.28-.78,31.85-.08a42,42,0,0,1,4.69.66,171.68,171.68,0,0,0,35.69,3.7l0,.4c-12.32,2.27-25.19,1.83-37.55-.34C849.3,784.23,841.85,784.26,837.2,784.08Zm107,1.44.08.39a104.86,104.86,0,0,1-20.88,3.73c-3.09.28-7.49.83-10.56.55a45,45,0,0,1-10.52-1.78V788c6.83-2.18,13.94-2,21-1.56A164.09,164.09,0,0,0,944.21,785.52Zm-58.43,5.28c8.61,0,17.39-.62,25.88,1.12,5.59,1.2,11.22.51,16.9.22s11.46-.33,17.18-.26v.4c-8.62.3-17.08,1.05-25.67,2-5.77.62-11.41-1.23-17.16-1-2.83,0-5.64,0-8.51.14-11.42.47-22.9,1.21-34.33,1.32-8.6.06-17,.67-25.56,1.16s-17.77-1-25.46-5l.14-.37a60.93,60.93,0,0,0,16.69,2.39c5.59,0,11.13-.86,16.89-1.48a126.82,126.82,0,0,1,17.31-.62C868.7,791,877.18,791.05,885.78,790.8Zm-262-9.64a91.14,91.14,0,0,1,23.06,3.73l0,.4a71.12,71.12,0,0,1-7.81.52,117.53,117.53,0,0,1-19.21-1.18c-6.34-.82-12.79.13-19.18.24-5.18.12-10.36.15-15.53-.08v-.4c5.15-.41,10.29-.86,15.39-1.51,5.71-.67,11.54-1.74,17.47-1.85C619.15,781.07,622.49,781.13,623.77,781.16Zm-11.46-9.79a78.7,78.7,0,0,1,8.07,1.79l0,.4c-10.91,1.32-21.83.54-32.7-.49-10.88-.87-21.77-1-32.66-1.75v-.4c10.91-.48,21.85-1.13,32.78-1C596,769.77,604.21,769.7,612.31,771.37Zm119.57,4.54,0,.4a88.4,88.4,0,0,1-25.35,1.63c-7.3-.63-17.63-1.53-25-2-8.73-.58-29.15-2.42-37.65-2.55l-12.57-.42v-.4c7.52-.21,17.82-.73,25.22-.52,8.87.24,29.16.88,37.75.88A114,114,0,0,1,707,774C715.18,775.09,723.44,775.52,731.88,775.91ZM809.05,797a40,40,0,0,0-10.91-1.17c-2.87,0-5.61.79-8.58.61l-2.84-.27c-14.69-1.41-29.94-2.75-44.67-3-7.49-.24-15-.24-22.49-.18l0-.4A423.46,423.46,0,0,1,764.6,791c7.54.17,15,0,22.64,1.2l2.74.48c2.64.32,5.52-.09,8.27.33a27.1,27.1,0,0,1,11,3.61Zm-48.59-25.44c-8.09-.2-16.19-1.23-24.25-1.45s-16.43.18-24.5-1.36c-16-2.85-32.22-2.57-48.35-2-8.16.1-16.29-.42-24.39-.72s-16.23-.54-24.35-.81v-.4c16.21-.22,32.51.39,48.68-.07,8.12-.37,16.27-1,24.39-.87a168.63,168.63,0,0,1,24.48,1.72,93.46,93.46,0,0,0,11.93.87c3.94,0,8.17-.37,12.17-.3,10.48.18,20.78,1.25,31.2,1.88-2.29-.27-4.55-.54-6.75-.77-14.58-1.31-29.21-2.22-43.84-2.48-8.78,0-17.71-1.37-26.37-1.62-11.7-.43-23.34,1.68-35.06,1.67-23.5.41-47-1.76-70.41-2a59.22,59.22,0,0,0-17.14,2.88l-.14-.37A55.59,55.59,0,0,1,585,761c23.48-1.19,47,.14,70.44-.31,5.54,0,11.06-.38,16.59-.73a44.28,44.28,0,0,1-9.77-4l.15-.37c5.53,1.32,11.28,2.39,16.95,1.94,1.87-.23,4.59-.25,6.5-.31,1.14,0,2.3-.07,3.59,0l.16.37a11.46,11.46,0,0,1-2.18,1.87c1.09,0,2.19.07,3.28.13,6,.27,11.82,1.12,17.6,1.64,17.5,1,35.25,1.69,52.7,3.75,20.29,2.33,49.4,8.16,69.58,11.23L848,778.78l-.05.4c-18.81-2.07-40.63-5.64-61.28-8.6,7.43,1.58,14.75,3.57,22.16,5.33l-.07.4c-10.09-1.12-20.11-2.77-30.15-4C772.54,771.58,766.55,771.86,760.46,771.56Zm-205.25-6.21c-9.93,1.42-21.64,3-31.64,4.1l-.05-.4c7.74-1,17.73-2.38,25.24-3.61l6.29-1A119.82,119.82,0,0,0,573.57,760a339.25,339.25,0,0,1,33.51-7.51,29.47,29.47,0,0,1-4.56-1.11V751a42,42,0,0,1,5.09-1.2c5-1.13,10.07-1.07,15.12-1.32a64,64,0,0,0,19.49-5.07l.19.35a54.38,54.38,0,0,1-9.87,5.09l3.7-.58C653,745,670,742,687.18,743.2a422.1,422.1,0,0,0,50.73,3.91c8.47.23,17-.28,25.53.1,12.68.64,25.42,1.44,38.09,1,8.45-.17,17-1.26,25.44-1.33a154.65,154.65,0,0,1,25.72,1.26c12.54,1.36,25.22,2.51,37.8.83,12.8-1.41,25.67.63,38.31,2.31l0,.4c-12.58-.83-25.44-2.24-38-.42-12.72,2.23-25.7,1.5-38.5.3a149.18,149.18,0,0,0-25.19-.68c-3.6.05-7.17.29-10.72.56a105.24,105.24,0,0,1,15.55,1.06c4.83.52,9.67.89,14.53,1.14a260.29,260.29,0,0,0,29.16.35c9.73-.65,19.46-1.26,29.18-2.08l0,.39c-19.4,2.11-38.92,4.31-58.47,3.34q-7.33-.23-14.66-.85c-7.35-.74-14.36-1.36-21.57-.06a253.71,253.71,0,0,1-51.25,4.27,159,159,0,0,1-22.1-2c-4.85-.76-9.43-2.3-14.28-3-7.19-1.14-14.37-1.49-21.68-2-9.75-.57-19.49-1.54-29.2-2.53l0-.4c4.89-.07,9.77,0,14.65,0,14.32.33,30.08-.67,44.11,2.39,25.82,5.23,53.23,4.72,79.34.46.42-.07.83-.11,1.24-.16-3.11.23-6.22.44-9.36.52-12.85.33-25.58-.59-38.36-1.44-8.48-.51-16.95-.12-25.47-.48a437.55,437.55,0,0,1-50.86-4.56c-12.54-.94-25.36.18-37.76,2.21-8.34,1.62-16.81,3-25.27,3.9a329.24,329.24,0,0,0-50,9.09A121.35,121.35,0,0,1,555.21,765.35Zm260.17-2.75a149,149,0,0,0-20.67,4l-.11-.38c17.88-6.4,37-7,55.77-8.16,9.39-.54,18.85-1.08,28.24-.74,5.62.23,11.32.29,16.93,1a31.13,31.13,0,0,0,11.1.51l.1.39a26.12,26.12,0,0,1-12,1.54C868.35,762.05,841.78,760.25,815.38,762.6Zm43,9.12,25.67.79c5.93.12,16.59.3,22.42.5a6.85,6.85,0,0,1,2.68.6,29.85,29.85,0,0,0,6.32,2.24,8,8,0,0,0,8.47-2.67c.93-1,1.84-.86,3.11-.58,3,.43,6.34,1.71,9.4.86,6.15-1.54,3.73-6.3,3.23-10.55-.38-3.14,1.25-5.94,1.46-9.12.44-2.52-.89-13.64-1-16.36-.65-6.95-1.34-13.82-1.78-20.81a7.34,7.34,0,0,0-.64-2.47,2.33,2.33,0,0,0-2.66-1.15,4.52,4.52,0,0,0-2.37,2.51c0-.72-.1-1.41-.18-2.06a144.08,144.08,0,0,0-2-15.51,37.23,37.23,0,0,0-2.62-7.59l-.39.09c.17,5.26.24,10.39.25,15.64,0,3.75,1,7.9,1.45,11.49-.11,3.47-2.33,6.57-4.87,8.88a16.55,16.55,0,0,1-3.84,2.35c-7.87-2.43-16.16-3.46-23.53,1.32l.08.4a24.79,24.79,0,0,0,4.37.41c4.19.3,8.23-.45,12.36-.49.85,0,1.69.11,2.54.19-4.31,1.83-8.69,3.53-13,5.37l.13.37q3.78-1.07,7.54-2.2c3.2-1,6.52-1.82,9.67-3,3.3.49,6.58,1.1,9.87,1.59l.11-.39c-2.3-.87-4.62-1.72-7-2.52a19.76,19.76,0,0,0,2.32-1.32,18.46,18.46,0,0,0,5.39-6.39c0,.25,0,.51.07.77a39.88,39.88,0,0,0,1.73,6.43,78.57,78.57,0,0,1,2.23,12.43c.61,4.24.9,8.48,1.33,12.75h.4c0-1.58.08-3.15.11-4.72.09,1.21.14,2.42.12,3.61a49.33,49.33,0,0,1-1.14,6.18c-.63,3.26.87,6.68,1.06,9.55,0,.68-1.23,1.09-2,1.25-1.46.38-2.93-.06-4.51-.27l-3.16-.53a7.5,7.5,0,0,0-3-.11,5.7,5.7,0,0,0-2.75,1.63c-1.46,2-3.14,2.53-5.86,2-2.55-.35-5-1.83-7.6-2.49-3.18-.42-8.21-.13-11.46-.19-19.85,0-44.51-.07-64.24.82l0,.4C841.28,771.71,849.84,771.64,858.4,771.72Zm76.38-51.82c0,1.6,0,3.22.13,4.78A12.05,12.05,0,0,1,934.78,719.9ZM599.64,745l0-.4a74.89,74.89,0,0,0,10.1-.55c6.66-1,13.23-2.83,19.82-4.35,16.64-3.71,33.72-4.94,50.57-7.31,3.38-.35,6.78-.65,10.17-.93,5.94-.46,14.18-.76,19.83-2.46,6.54-1.85,13.69-3.28,20.64-2.87,3.53.2,6.79.59,10.13.65,6.66.18,13.39-.84,20-1.59,13.49-1.56,26.89-4.21,40.43-5.26,20.32-1.81,40.48-4.67,60.82-6.35,6.8-.3,13.56-.67,20.35-1.06l10.17-.59c3.44-.12,6.83.05,10.23.22a68.36,68.36,0,0,0,20.15-1.73l.09.39a69.2,69.2,0,0,1-20.27,2.14c-3.39-.1-6.79-.2-10.14,0l-10.15.79c-13.57,1-27,1.77-40.5,3.9-20.15,2.78-40.5,4.46-60.59,7.59-6.67,1.19-13.46,2.24-20.18,3.15s-13.57,2.06-20.51,2c-3.46,0-7-.34-10.21-.46a51.89,51.89,0,0,0-9.78.71c-6.34,1-12.88,3.8-20.06,4.24-18.72,1-42,3.86-60.77,5.59-10.14,1.06-20,4-30.16,4.76A64.83,64.83,0,0,1,599.64,745Zm289.1-11.88c3.09.76,8.13,1.94,11.24,2.63l-.05.39c-3.86-.23-7.68-.79-11.52-1.23-15.21-2.32-30.58-.43-45.88-.43-19.13-.17-38.49-.54-57.55,1.08-18.9,2.41-38,7.17-56.91,9.36l-11.49,1.2-.05-.39c22.86-2.54,45.47-9.18,68.14-12.75,22.23-2.4,46.89-2.63,69.35-2.76C865.55,730.23,877.47,730.15,888.74,733.11Zm52.69-42.84h.4c2.44,6.77,2.49,13.87,2.62,21,.41,7,.51,14.14.5,21.21l-.4,0c-1-6-2.33-14.79-3.28-20.92A45.12,45.12,0,0,1,941.43,690.27Zm-5-39.69c1.25,5.25,2.07,10.81,3.54,16a18.38,18.38,0,0,1-.42,9.94l-.4.06c-2.66-3.79-3.26-8.3-3.18-12.78l-.18-3.28,0-3.31c.07-2.21.09-4.41.21-6.6Zm-3.56,20.29c-1.43-7.15-4.61-14.06-4.35-21.54a35.94,35.94,0,0,1,.65-7.46h.4c1.26,4.81,2.22,9.54,3.54,14.06a71.93,71.93,0,0,1,2.93,14.48,120.65,120.65,0,0,1,.46,14.8,143.74,143.74,0,0,1-.94,14.69l-.4,0A200.79,200.79,0,0,0,932.9,670.87Zm-75.09,37.19,0-.39a304.36,304.36,0,0,1,38.8-4.55c4-.19,8-.88,12-.9,2.85-.16,6.81,1,8.83-.71.92-1.42,1.56-4.24,2.17-5.94a50,50,0,0,0,2.72-14c-.08-1.94-1-3.56-1.5-5.54a7.08,7.08,0,0,1,1.56-6.12l.34.2c-1.38,3-.38,5.4,1.23,7.93,1.66,2.78,1.52,6.59,1.25,9.53a47.49,47.49,0,0,1-2.54,12.07,17.48,17.48,0,0,1-1.72,3.93,6,6,0,0,1-2.7,2c-3.34,1.2-6.45.05-9.72-.06-3.94-.21-7.91.3-11.9.28C883.67,705.89,870.7,706.75,857.81,708.06Zm27.84-308.2c.83,16,.76,32.1,0,48.11l-.4,0c-3.49-18.16-3.42-36.55-3.15-54.91a203.73,203.73,0,0,0-2.86-27.16,210.17,210.17,0,0,0-6.33-26.68l.38-.13A191,191,0,0,1,885.65,399.86Zm5,14.22a139.57,139.57,0,0,1-3.72-22.73c-.33-3.86-.74-7.79-.17-11.65a48,48,0,0,1,.93-4.78c-1.6-6.34-3.3-12.61-5.12-18.93-2-7.8-2.71-15.7-3.53-23.53-1.34-13.31-2.16-33.56-2.79-47.11-1.13-19.58-2.59-39.18-4.71-58.7-.84-7.65-3-27.31-3.85-35.15l.4-.06c1.9,13.66,4.9,33.26,6.63,46.72,3.74,31.21,6.08,62.65,8.3,94,.53,7.76.92,15.6,2.3,23.23,1.21,5.67,2.24,11.46,3,17.26a29.24,29.24,0,0,1,1.69-4.16l.39.07c1.07,9.59-.56,18.82-.25,28.38,0,5.71.36,11.39.88,17.09Zm10-80.71c.16-12.48.27-25.12-.44-37.6-.57-4.1,1.3-8.35.05-12.34-.35-1.25-1.18-2.42-1.51-3.95a6.68,6.68,0,0,1,.64-4.34,12,12,0,0,0,.4-8l.39-.11a12.67,12.67,0,0,1,0,8.42,5.8,5.8,0,0,0-.42,3.81c.3,1.22,1.17,2.37,1.67,3.78a11.81,11.81,0,0,1,.7,4.35,40.05,40.05,0,0,0-.11,8.26l.4,4.18c.87,11.2,1.17,22.33,1.43,33.57.25,5.78-.52,11.11-1,16.82-.1,5.2-.71,10.85.69,15.93.51,1.93,1.34,4,1.81,6.1.57,3.55.86,6.92,1.43,10.48.9,5.47,1.67,11.31.74,16.86h-.4a62.07,62.07,0,0,0-1.06-8.24c-1.47-5.95-3.14-12.13-4.26-18.21-.58-2-1.42-3.75-2.1-5.84a27.84,27.84,0,0,1-1.21-8.88,84.13,84.13,0,0,1,1-12.75A73,73,0,0,0,900.62,333.37ZM922,583.05c-2.59-4.85-2.93-10.84-1.93-16.23a93.08,93.08,0,0,0-.08-9.59c-.18-8.74-1-17.29-1.59-26-.55-10.84-.33-21.65-2.09-32.38-.72-6.36,0-12.59.54-18.82-.07.29-.12.59-.2.88l-.4,0c-1.27-7.13-3.05-13.29-4.65-20.21a158.24,158.24,0,0,1-2-21.12c-.06-4.7-.17-9.38-.18-14.05h.4c1.24,9.23,2.22,18.47,4,27.61,1,5,3,10.18,3.73,15.47,0-.81,0-1.61-.08-2.42-.4-12.07-.41-27.11-.84-39.09a42.06,42.06,0,0,0-.85-6.35c-.77-4.27-.87-8.63-2.27-12.71-1.76-4.73-3.51-8-.06-12.7a6.69,6.69,0,0,0-.61-5.87,14.3,14.3,0,0,1-1.2-6.52,30.83,30.83,0,0,1,1-6.49l.39.09c-.84,4.1-1.37,8.72.57,12.56a7.64,7.64,0,0,1,.81,6.64,29.26,29.26,0,0,0-1.48,2.84c-1,3.13.84,6,1.94,9,1.57,4.14,1.82,8.61,2.72,12.85a44.16,44.16,0,0,1,1.07,6.54c.52,7.55.77,18.45,1.13,26.11.14,4.74.87,15,.83,19.65-.11,6.46-1.14,13.09-.93,19.43.08,5.38,1.28,10.63,1.9,15.95-.08-6.2.09-12.36.15-18.54l.4,0c1,6.55,1.62,13.14,2.26,19.67.59,5.77,3,11.08,3.77,16.87,1.14,12.58.3,29.51.38,42.24.11,4-.12,8.14.47,12,.71,1.85,2.18,4.5,1.23,6.76-.57,1.35-2,2.5-3.54,2a3.32,3.32,0,0,1-.76-.49c.05,4.34,1,8.63.48,13-.15,1.67-1,3.2-1.26,4.82a20.18,20.18,0,0,0,.11,7.14,34.12,34.12,0,0,1-.11,10,32.39,32.39,0,0,0-.58,4.85,26.9,26.9,0,0,0,1.78,9.56l-.37.15a27.55,27.55,0,0,1-2.21-9.71c0-3.33.81-6.54.61-9.85,0-3.37-1.11-6.45-1.09-9.87-.15-3.33,1.59-6.37,1.31-9.69-.24-4.77-1.51-9.74-.79-14.56a1.41,1.41,0,0,1,2-1c.78.49.85,1.28,1.14,2a6.06,6.06,0,0,0,.42.94l.09.15a1.2,1.2,0,0,0,.38-1.1,10.82,10.82,0,0,0-1.28-3.57,11.09,11.09,0,0,1-.72-3.47c-.58-6.78-.86-22.8-1.12-29.78-.23-6.66-.09-15.48-.44-22-.35-4.09-1.55-8.08-2.23-12.15.29,5.58.21,11.15.44,16.72.35,8.69.83,17.42.41,26.13a55.5,55.5,0,0,1-1.35,13.11,23.8,23.8,0,0,0,.92,12.58Zm7.51,8.47c-.87,2-.47,4.15-.52,6.17a93.09,93.09,0,0,0,1,13.58c.59,3.33,1.06,6.53,1.39,9.84,0,3.37,1.14,6.91,1.7,10a22.05,22.05,0,0,1,0,6.54l.38.11c1.95-4.17,1.37-9.21,1-13.52a81.47,81.47,0,0,0-.52-13.53c-.52-5-.84-10-1.11-15a4.5,4.5,0,0,0,1,.87,1.87,1.87,0,0,0,2.63-.7,2.39,2.39,0,0,0,.23-1.08c-.22-2.15-1.23-3.93-1.54-5.94-.64-3.22-.11-6.22.38-9.58.8-4.54-.27-9.22-.81-13.69a194.55,194.55,0,0,1-1.23-26.79l-.4,0a173.29,173.29,0,0,0,.25,33.7c.5,4.57-1.18,8.61-1.38,13.25a16.47,16.47,0,0,0,.39,4.66A2.34,2.34,0,0,0,929.49,591.52Zm1.59,2.24-.05,0ZM909.51,488.62c4.77,13.19,6,27.27,5.9,41.19-.2,12.2-.4,29.54-1,41.56H914c-.44-7.93-1.56-44.61-2.72-51.72-.69-5.95-1.18-14.51-1.58-20.56-.28-3.43-.54-6.88-.56-10.4Zm-14.25,2.09c1,7.06,1.47,14.85,2.92,21.79.9,4.79,2.07,9.54,3.34,14.27l-.38.13a137.61,137.61,0,0,1-6.79-21.13c-.84-4.91-1.75-9.54-3-14.35s-.67-9.81-1-14.68c-.27-2.06-.28-7.91,3.31-6l-.13.38c-1.42-.15-1.44.65-1.29,1.75a20.79,20.79,0,0,0,.87,3.33C894.56,481,894.67,486,895.26,490.71Zm11.32-21.63c.35,3.51.76,7,1.06,10.55l-.39.08c-1.74-6.62-3.65-13.91-5-20.66-1.23-5.17-2.35-10.37-2.25-15.72a34.36,34.36,0,0,1,.33-5.42l.4-.07c3.29,6.45,4.3,13.58,4.68,20.71C905.71,461.17,906.27,466.46,906.58,469.08Zm-5-51.49a136.3,136.3,0,0,1-5.27-22.84c-.54-3.87-1.39-7.69-1.4-11.6a56,56,0,0,1,.93-11.76l.4,0c2.73,7.42,3.18,15.27,3.26,23.08A217.87,217.87,0,0,0,902,417.49Zm6.51-6a78.16,78.16,0,0,1,.46,18.4c-.44,6-.64,12.09-1.58,18.13h-.4a94.85,94.85,0,0,1-2-18.23c-.08-7.51,1.38-14.86-.28-22.26a139.55,139.55,0,0,1-3.45-31.74l.4,0a174.63,174.63,0,0,0,4.63,26.72A74.69,74.69,0,0,1,908.14,411.57Zm-15.8-89.51c-.6-11.13-1.08-22.36.52-33.46.47-3.7,1-7.39,1.78-11.06l.4,0c1.24,14.88.83,29.57.5,44.44-.17,14.83,0,29.66-.12,44.49l-.4,0C894,351.71,893,336.9,892.34,322.06ZM888,274c-.81-8.91-1.71-17.59-1.29-26.55l.39-.08a39.81,39.81,0,0,1,2.33,6.42,48.27,48.27,0,0,1,1.91,13.4l-.14,6.74c-.22,8.93-.88,17.86-1.47,26.76h-.4C888.69,291.88,888.4,282.71,888,274ZM105.9,754a28.94,28.94,0,0,1,4.79,1.2v.4a38,38,0,0,1-9.58,1.8c-3.2.3-6.39-.24-9.56-.34a81.44,81.44,0,0,1-19.18-2.4l.06-.4a121.18,121.18,0,0,0,19-.4C96.29,753.31,101.11,753,105.9,754Zm-25.19,5.91C94,758.5,107.53,758,120.54,755a43.19,43.19,0,0,1,15.61-1.33c5.07,1.15,9.5,0,14.59-.13a29.27,29.27,0,0,1,10.21,1.6l-.07.39a55.29,55.29,0,0,0-9.88.81c-3.2.56-6.36,1.57-10.07,1.85-3.44.19-6.64-.81-10.07-.77a41.16,41.16,0,0,0-9.7.71A150.67,150.67,0,0,1,100.91,760q-10.09.28-20.18.3ZM65,764.12a42.65,42.65,0,0,1,11.58-1.86c4-.1,7.66.8,11.46,1.17l5.7.57a86.16,86.16,0,0,0,17.07.12l.06.4a54,54,0,0,1-6.56,1.32,32.28,32.28,0,0,1,7.3,1.26l0,.4c-5.19,2.66-11,2.62-16.64,1.82a105.43,105.43,0,0,1-16.46-2.9A79.1,79.1,0,0,1,65,764.52Zm101.06-7.38c12.17-1.88,25.66-3.72,37.91-4.5a67,67,0,0,1,12.79.89l0,.4a64.73,64.73,0,0,1-18.91,3.12c-6.1-.06-13,0-19.06.22-4.23.08-8.47.23-12.72.27Zm-3.28,6.12c26.62-1.94,55.53-3.34,82.18-4.12,3.47.14,6.55.62,10.17.38a61,61,0,0,0,14.72-2.76A84.44,84.44,0,0,1,285.4,754c13.84-.82,27.46.72,41.24,1.62v.4c-13.6,1.31-27.33.62-40.92,2a118.66,118.66,0,0,0-14.9,2.32,59.25,59.25,0,0,1-15.58,2.35,67.32,67.32,0,0,1-9.72-.71c-12.07-.19-29.35.29-41.63.42-12,0-28.95.46-41.08.88Zm131.53,8.56c-6.89,1.37-13.78,1.92-20.65,2.63-5.92.65-14.69.87-20.75,1.05-3.81.06-22.62.38-26,.36-3.59,0-11.92-.33-15.6-.43v-.4c11.77-.44,29.55-1.84,41.44-2.72,6.89-.57,13.71-1.71,20.7-1.85a142.86,142.86,0,0,1,20.88,1Zm117.83,3c4,.31,8.35.69,12.27,1.13v.4c-5.42.62-10.85,1-16.26,1.49-5.4.81-10.7,1.49-16.17.7l-.1-.39a20.59,20.59,0,0,1,12-3.69C406.31,774.22,409.76,774.29,412.15,774.45ZM482.64,778a3.21,3.21,0,0,0-.77,0c-2.78.58-5.45,1.61-8.16,2.28-7.73,2.24-15.57,1.3-23.57,1.13l-5.26,0c2.27-.19,4.53-.43,6.79-.78a100.76,100.76,0,0,0,10.81-2.46,61.92,61.92,0,0,1,7.7,1.4l.13-.37a40.14,40.14,0,0,0-4.55-2c1.36-.42,2.72-.84,4.07-1.28l-.12-.39c-1.64.45-3.3.88-5,1.29-.61-.21-1.23-.42-1.85-.61a52.79,52.79,0,0,0-12-2,15.77,15.77,0,0,0-11.48,4.18l.15.37c1.42.05,2.73,0,4-.07l3.76-.17c2.51-.07,5-.67,7.5-.73,1.72,0,3.44,0,5.14.12-2.81.61-5.64,1.12-8.48,1.47-6.14.69-12.37.61-18.61.72-8.76.25-17.53.58-26.29.84l-4.74,0c-19.26,0-26.81.15-23.19.76-.73.12-1.45.26-2.17.42a33.18,33.18,0,0,1-8.8,1.14c-10.82-.2-22-.26-32.74,1.36-1.43.18-2.87-.46-4.35-.61a12.29,12.29,0,0,0-4.94.27,8.8,8.8,0,0,0-4.12,2.54l.26.3a8.66,8.66,0,0,1,4.1-1.68c3.25-.59,6,1.36,9.13,1.55,11-.52,21.69.21,32.69.43a33.55,33.55,0,0,0,9.65-1.44c5.93-1.67,12.1-1.35,18.21-1.51q4.52-.24,9-.51c12.08.87,24.49,1.59,36.7,1.58-.71.12-1.41.25-2.12.41l0,.39a18.85,18.85,0,0,0,1.91.81c-6.08-.58-12.17-1.5-18.33-1.88a184.66,184.66,0,0,0-24.22,0l0,.4a182.84,182.84,0,0,1,24.1.75c8,.75,15.88,2.45,24,3.09a120.68,120.68,0,0,0,12.2.46c3,.07,5.89-.9,8.82-.52,2.84.65,6.08.35,8.18-1.74l1.29.15.09-.39-.91-.28a7.15,7.15,0,0,0,.6-.88,15.45,15.45,0,0,1,5.76-5,3.42,3.42,0,0,0,1.2-.92A1.6,1.6,0,0,0,482.64,778Zm-16.71,7.11A56.18,56.18,0,0,0,476,783a17.08,17.08,0,0,0-1.38,1.82,4.61,4.61,0,0,1-1.39,1.59A54.77,54.77,0,0,0,465.93,785.1Zm-270.5-10.47c3.65.2,7.3.42,11,.79l0,.4a120.34,120.34,0,0,1-22,2.24c-7.38.15-14.58-.84-21.93-1s-14.59-.35-21.89-.22-14.61.43-21.91.89l0-.4a352.63,352.63,0,0,1,65.83-3.24Zm335.37,33,.21.34a15.24,15.24,0,0,1-10.41,4.87c-3.9.31-7.55-1.19-11.11-2.27a54.62,54.62,0,0,0-10.43-2.17,60.67,60.67,0,0,0-10.79-.15l-.06-.4a51.21,51.21,0,0,1,16.52-1.25C513.47,807.77,522.08,810.37,530.8,807.63Z" name="Layer 2" zoom="1" data-layer-id="6706807882194" style="fill: rgb(33, 50, 93); fill-opacity: 1;"></path></svg>